<?xml version="1.0" encoding="UTF-8"?>
<!DOCTYPE svg PUBLIC "-//W3C//DTD SVG 1.1//EN" "http://www.w3.org/Graphics/SVG/1.1/DTD/svg11.dtd">
<svg xmlns="http://www.w3.org/2000/svg" version="1.1" width="16px" height="16px" style="shape-rendering:geometricPrecision; text-rendering:geometricPrecision; image-rendering:optimizeQuality; fill-rule:evenodd; clip-rule:evenodd" xmlns:xlink="http://www.w3.org/1999/xlink">
<g><path style="opacity:1" fill="#414141" d="M 9.5,-0.5 C 11.5,-0.5 13.5,-0.5 15.5,-0.5C 15.5,1.83333 15.5,4.16667 15.5,6.5C 11.2917,5.71503 10.9584,4.8817 14.5,4C 12.8659,3.50649 11.1992,3.33982 9.5,3.5C 8.39836,1.9081 9.06503,1.07476 11.5,1C 10.5842,0.721579 9.91753,0.221579 9.5,-0.5 Z"/></g>
<g><path style="opacity:1" fill="#323232" d="M 9.5,3.5 C 9.60682,5.37857 9.10682,5.7119 8,4.5C 7.24956,5.12576 6.41623,5.62576 5.5,6C 16.1667,6.66667 16.1667,7.33333 5.5,8C 5.83333,8.33333 6.16667,8.66667 6.5,9C 5.69194,9.30762 5.02527,9.80762 4.5,10.5C 5.73569,11.3567 7.06902,12.0234 8.5,12.5C 10.4086,11.6518 12.4086,11.3184 14.5,11.5C 11.1667,12.8333 7.83333,14.1667 4.5,15.5C 2.83333,15.5 1.16667,15.5 -0.5,15.5C -0.5,15.1667 -0.5,14.8333 -0.5,14.5C 2.99899,14.741 3.33232,13.9076 0.5,12C 4.27209,11.3893 4.27209,10.3893 0.5,9C 1.98138,8.01968 3.31471,6.85301 4.5,5.5C 2.00866,4.45928 2.00866,3.62595 4.5,3C 3.16667,2.66667 1.83333,2.33333 0.5,2C 2.83333,1.33333 5.16667,1.33333 7.5,2C 7.16667,2.33333 6.83333,2.66667 6.5,3C 7.44802,3.48278 8.44802,3.64945 9.5,3.5 Z"/></g>
<g><path style="opacity:1" fill="#646464" d="M -0.5,-0.5 C 2.83333,-0.5 6.16667,-0.5 9.5,-0.5C 9.91753,0.221579 10.5842,0.721579 11.5,1C 9.06503,1.07476 8.39836,1.9081 9.5,3.5C 8.44802,3.64945 7.44802,3.48278 6.5,3C 6.83333,2.66667 7.16667,2.33333 7.5,2C 5.16667,1.33333 2.83333,1.33333 0.5,2C 1.83333,2.33333 3.16667,2.66667 4.5,3C 2.00866,3.62595 2.00866,4.45928 4.5,5.5C 3.31471,6.85301 1.98138,8.01968 0.5,9C 4.27209,10.3893 4.27209,11.3893 0.5,12C 3.33232,13.9076 2.99899,14.741 -0.5,14.5C -0.5,9.5 -0.5,4.5 -0.5,-0.5 Z"/></g>
<g><path style="opacity:1" fill="#767676" d="M 9.5,3.5 C 11.1992,3.33982 12.8659,3.50649 14.5,4C 10.9584,4.8817 11.2917,5.71503 15.5,6.5C 15.5,7.16667 15.5,7.83333 15.5,8.5C 12.9677,8.46239 10.3011,8.79572 7.5,9.5C 10.0661,8.90531 12.3994,9.57198 14.5,11.5C 12.4086,11.3184 10.4086,11.6518 8.5,12.5C 7.06902,12.0234 5.73569,11.3567 4.5,10.5C 5.02527,9.80762 5.69194,9.30762 6.5,9C 6.16667,8.66667 5.83333,8.33333 5.5,8C 16.1667,7.33333 16.1667,6.66667 5.5,6C 6.41623,5.62576 7.24956,5.12576 8,4.5C 9.10682,5.7119 9.60682,5.37857 9.5,3.5 Z"/></g>
<g><path style="opacity:1" fill="#4a4a4a" d="M 15.5,8.5 C 15.5,10.8333 15.5,13.1667 15.5,15.5C 11.8333,15.5 8.16667,15.5 4.5,15.5C 7.83333,14.1667 11.1667,12.8333 14.5,11.5C 12.3994,9.57198 10.0661,8.90531 7.5,9.5C 10.3011,8.79572 12.9677,8.46239 15.5,8.5 Z"/></g>
</svg>
