<?xml version="1.0" encoding="UTF-8"?>
<!DOCTYPE svg PUBLIC "-//W3C//DTD SVG 1.1//EN" "http://www.w3.org/Graphics/SVG/1.1/DTD/svg11.dtd">
<svg xmlns="http://www.w3.org/2000/svg" version="1.1" width="32px" height="32px" style="shape-rendering:geometricPrecision; text-rendering:geometricPrecision; image-rendering:optimizeQuality; fill-rule:evenodd; clip-rule:evenodd" xmlns:xlink="http://www.w3.org/1999/xlink">
<g><path style="opacity:1" fill="#484848" d="M -0.5,-0.5 C 3.16667,-0.5 6.83333,-0.5 10.5,-0.5C 8.16667,0.166667 5.83333,0.833333 3.5,1.5C 2.16667,1.83333 2.16667,2.16667 3.5,2.5C 3.5,2.83333 3.5,3.16667 3.5,3.5C 3.41133,4.66086 5.07799,4.99419 8.5,4.5C 8.5,5.5 8.5,6.5 8.5,7.5C 7.5,7.5 6.5,7.5 5.5,7.5C 5.5,6.83333 5.16667,6.5 4.5,6.5C 3.29208,5.76589 1.95875,5.43255 0.5,5.5C 0.262695,6.79105 0.596028,7.79105 1.5,8.5C 2.66015,10.2027 1.99349,10.8693 -0.5,10.5C -0.5,6.83333 -0.5,3.16667 -0.5,-0.5 Z"/></g>
<g><path style="opacity:1" fill="#959595" d="M 11.5,-0.5 C 12.5,-0.5 13.5,-0.5 14.5,-0.5C 14.5,0.5 14.5,1.5 14.5,2.5C 10.8333,2.5 7.16667,2.5 3.5,2.5C 2.16667,2.16667 2.16667,1.83333 3.5,1.5C 6.69805,2.03562 9.36472,1.36895 11.5,-0.5 Z"/></g>
<g><path style="opacity:1" fill="#3e3e3e" d="M 19.5,-0.5 C 23.5,-0.5 27.5,-0.5 31.5,-0.5C 31.5,0.833333 31.5,2.16667 31.5,3.5C 29.9064,3.08049 28.4064,2.41382 27,1.5C 25.7387,1.75908 24.7387,2.42575 24,3.5C 23.7679,2.26253 23.2679,1.26253 22.5,0.5C 21.209,0.737305 20.209,0.403972 19.5,-0.5 Z"/></g>
<g><path style="opacity:1" fill="#747474" d="M 10.5,-0.5 C 10.8333,-0.5 11.1667,-0.5 11.5,-0.5C 9.36472,1.36895 6.69805,2.03562 3.5,1.5C 5.83333,0.833333 8.16667,0.166667 10.5,-0.5 Z"/></g>
<g><path style="opacity:1" fill="#646464" d="M 14.5,-0.5 C 15.5,-0.5 16.5,-0.5 17.5,-0.5C 17.4326,0.95875 17.7659,2.29208 18.5,3.5C 17.2264,4.18944 17.2264,5.02278 18.5,6C 21.8818,6.17636 25.2152,6.67636 28.5,7.5C 28.1445,8.5223 27.4778,9.18897 26.5,9.5C 24.1667,9.5 21.8333,9.5 19.5,9.5C 17.1998,7.79818 14.5331,7.13152 11.5,7.5C 11.5,6.5 11.5,5.5 11.5,4.5C 11.1211,3.27592 8.45445,2.94259 3.5,3.5C 3.5,3.16667 3.5,2.83333 3.5,2.5C 7.16667,2.5 10.8333,2.5 14.5,2.5C 14.5,1.5 14.5,0.5 14.5,-0.5 Z"/></g>
<g><path style="opacity:1" fill="#595959" d="M 22.5,0.5 C 23.2679,1.26253 23.7679,2.26253 24,3.5C 24.7387,2.42575 25.7387,1.75908 27,1.5C 28.4064,2.41382 29.9064,3.08049 31.5,3.5C 31.5,4.5 31.5,5.5 31.5,6.5C 27.3291,5.73777 23.3291,4.73777 19.5,3.5C 20.5,3.5 21.5,3.5 22.5,3.5C 22.5,2.5 22.5,1.5 22.5,0.5 Z"/></g>
<g><path style="opacity:1" fill="#7e7e7e" d="M 17.5,-0.5 C 18.1667,-0.5 18.8333,-0.5 19.5,-0.5C 20.209,0.403972 21.209,0.737305 22.5,0.5C 22.5,1.5 22.5,2.5 22.5,3.5C 21.5,3.5 20.5,3.5 19.5,3.5C 19.1667,3.5 18.8333,3.5 18.5,3.5C 17.7659,2.29208 17.4326,0.95875 17.5,-0.5 Z"/></g>
<g><path style="opacity:1" fill="#8a8a8a" d="M 4.5,6.5 C 4.17876,8.04814 3.17876,8.71481 1.5,8.5C 0.596028,7.79105 0.262695,6.79105 0.5,5.5C 1.95875,5.43255 3.29208,5.76589 4.5,6.5 Z"/></g>
<g><path style="opacity:1" fill="#353535" d="M 18.5,3.5 C 18.8333,3.5 19.1667,3.5 19.5,3.5C 23.3291,4.73777 27.3291,5.73777 31.5,6.5C 31.5,8.83333 31.5,11.1667 31.5,13.5C 30.0209,12.241 28.3542,11.241 26.5,10.5C 26.5,10.1667 26.5,9.83333 26.5,9.5C 27.4778,9.18897 28.1445,8.5223 28.5,7.5C 25.2152,6.67636 21.8818,6.17636 18.5,6C 17.2264,5.02278 17.2264,4.18944 18.5,3.5 Z"/></g>
<g><path style="opacity:1" fill="#313131" d="M 3.5,3.5 C 8.45445,2.94259 11.1211,3.27592 11.5,4.5C 11.5,5.5 11.5,6.5 11.5,7.5C 14.5331,7.13152 17.1998,7.79818 19.5,9.5C 18.7211,11.9272 17.5545,11.9272 16,9.5C 15.6012,9.72845 15.4346,10.0618 15.5,10.5C 13.8333,10.5 12.1667,10.5 10.5,10.5C 10.5,11.5 10.5,12.5 10.5,13.5C 12.4147,13.7845 14.0813,13.4511 15.5,12.5C 17.861,12.6741 20.1944,13.0074 22.5,13.5C 23.8734,13.3433 25.2068,13.51 26.5,14C 23.854,14.4974 21.1873,14.6641 18.5,14.5C 15.8333,14.5 13.1667,14.5 10.5,14.5C 10.3601,16.1238 11.0267,17.2904 12.5,18C 11.2068,18.49 9.87344,18.6567 8.5,18.5C 8.5,20.1667 8.5,21.8333 8.5,23.5C 10.5,23.5 12.5,23.5 14.5,23.5C 14.7911,24.6491 15.6244,25.3158 17,25.5C 20.6818,23.7362 24.5152,23.2362 28.5,24C 21.8331,25.9212 15.1664,27.4212 8.5,28.5C 8.5,29.5 8.5,30.5 8.5,31.5C 5.5,31.5 2.5,31.5 -0.5,31.5C -0.5,30.5 -0.5,29.5 -0.5,28.5C 2.20616,28.4249 4.87283,28.0916 7.5,27.5C 7.5,26.5 7.5,25.5 7.5,24.5C 5.87623,24.3601 4.70956,25.0267 4,26.5C 2.90849,24.8834 1.40849,23.8834 -0.5,23.5C -0.5,22.5 -0.5,21.5 -0.5,20.5C 0.893316,21.2598 2.39332,21.9265 4,22.5C 4.83333,22.3333 5.66667,22.1667 6.5,22C 5.66337,20.9887 5.33003,19.8221 5.5,18.5C 1.1617,18.3781 0.828369,18.0447 4.5,17.5C 5.43448,16.4324 5.76781,15.099 5.5,13.5C 6.83333,13.5 8.16667,13.5 9.5,13.5C 9.5,11.8333 9.5,10.1667 9.5,8.5C 8.16667,8.5 6.83333,8.5 5.5,8.5C 5.5,8.16667 5.5,7.83333 5.5,7.5C 6.5,7.5 7.5,7.5 8.5,7.5C 8.5,6.5 8.5,5.5 8.5,4.5C 5.07799,4.99419 3.41133,4.66086 3.5,3.5 Z"/></g>
<g><path style="opacity:1" fill="#5e5e5e" d="M 4.5,6.5 C 5.16667,6.5 5.5,6.83333 5.5,7.5C 5.5,7.83333 5.5,8.16667 5.5,8.5C 6.20895,9.40397 7.20895,9.73731 8.5,9.5C 8.5,10.5 8.5,11.5 8.5,12.5C 6.51676,12.1568 5.18342,12.8235 4.5,14.5C -0.833333,15.1667 -0.833333,15.8333 4.5,16.5C 4.5,16.8333 4.5,17.1667 4.5,17.5C 0.828369,18.0447 1.1617,18.3781 5.5,18.5C 5.33003,19.8221 5.66337,20.9887 6.5,22C 5.66667,22.1667 4.83333,22.3333 4,22.5C 2.39332,21.9265 0.893316,21.2598 -0.5,20.5C -0.5,17.1667 -0.5,13.8333 -0.5,10.5C 1.99349,10.8693 2.66015,10.2027 1.5,8.5C 3.17876,8.71481 4.17876,8.04814 4.5,6.5 Z"/></g>
<g><path style="opacity:1" fill="#4e4e4e" d="M 19.5,9.5 C 21.8333,9.5 24.1667,9.5 26.5,9.5C 26.5,9.83333 26.5,10.1667 26.5,10.5C 25.1667,10.5 23.8333,10.5 22.5,10.5C 22.5,11.5 22.5,12.5 22.5,13.5C 20.1944,13.0074 17.861,12.6741 15.5,12.5C 15.5,11.8333 15.5,11.1667 15.5,10.5C 15.4346,10.0618 15.6012,9.72845 16,9.5C 17.5545,11.9272 18.7211,11.9272 19.5,9.5 Z"/></g>
<g><path style="opacity:1" fill="#656565" d="M 15.5,10.5 C 15.5,11.1667 15.5,11.8333 15.5,12.5C 14.0813,13.4511 12.4147,13.7845 10.5,13.5C 10.5,12.5 10.5,11.5 10.5,10.5C 12.1667,10.5 13.8333,10.5 15.5,10.5 Z"/></g>
<g><path style="opacity:1" fill="#686868" d="M 26.5,10.5 C 28.3542,11.241 30.0209,12.241 31.5,13.5C 31.5,14.1667 31.5,14.8333 31.5,15.5C 27.1667,15.5 22.8333,15.5 18.5,15.5C 18.5,15.1667 18.5,14.8333 18.5,14.5C 21.1873,14.6641 23.854,14.4974 26.5,14C 25.2068,13.51 23.8734,13.3433 22.5,13.5C 22.5,12.5 22.5,11.5 22.5,10.5C 23.8333,10.5 25.1667,10.5 26.5,10.5 Z"/></g>
<g><path style="opacity:1" fill="#464646" d="M 5.5,8.5 C 6.83333,8.5 8.16667,8.5 9.5,8.5C 9.5,10.1667 9.5,11.8333 9.5,13.5C 8.16667,13.5 6.83333,13.5 5.5,13.5C 5.76781,15.099 5.43448,16.4324 4.5,17.5C 4.5,17.1667 4.5,16.8333 4.5,16.5C 4.5,15.8333 4.5,15.1667 4.5,14.5C 5.18342,12.8235 6.51676,12.1568 8.5,12.5C 8.5,11.5 8.5,10.5 8.5,9.5C 7.20895,9.73731 6.20895,9.40397 5.5,8.5 Z"/></g>
<g><path style="opacity:1" fill="#7d7d7d" d="M 4.5,14.5 C 4.5,15.1667 4.5,15.8333 4.5,16.5C -0.833333,15.8333 -0.833333,15.1667 4.5,14.5 Z"/></g>
<g><path style="opacity:1" fill="#555555" d="M 6.5,14.5 C 9.95707,14.6672 10.2904,15.6672 7.5,17.5C 6.61432,16.675 6.28099,15.675 6.5,14.5 Z"/></g>
<g><path style="opacity:1" fill="#4c4c4c" d="M 18.5,14.5 C 18.5,14.8333 18.5,15.1667 18.5,15.5C 16.7761,15.4607 16.4427,15.794 17.5,16.5C 17.5,16.8333 17.5,17.1667 17.5,17.5C 16.5,17.5 15.5,17.5 14.5,17.5C 14.5,18.5 14.5,19.5 14.5,20.5C 15.5,20.5 16.5,20.5 17.5,20.5C 17.5,20.8333 17.5,21.1667 17.5,21.5C 16.8333,21.5 16.1667,21.5 15.5,21.5C 14.2223,21.2178 13.2223,20.5511 12.5,19.5C 10.8212,19.2852 9.82124,19.9519 9.5,21.5C 11.1667,22.1667 12.8333,22.8333 14.5,23.5C 12.5,23.5 10.5,23.5 8.5,23.5C 8.5,21.8333 8.5,20.1667 8.5,18.5C 9.87344,18.6567 11.2068,18.49 12.5,18C 11.0267,17.2904 10.3601,16.1238 10.5,14.5C 13.1667,14.5 15.8333,14.5 18.5,14.5 Z"/></g>
<g><path style="opacity:1" fill="#909090" d="M 18.5,15.5 C 22.8333,15.5 27.1667,15.5 31.5,15.5C 31.5,16.1667 31.5,16.8333 31.5,17.5C 30.1779,17.33 29.0113,17.6634 28,18.5C 27.5,18 27,17.5 26.5,17C 23.5184,16.502 20.5184,16.3354 17.5,16.5C 16.4427,15.794 16.7761,15.4607 18.5,15.5 Z"/></g>
<g><path style="opacity:1" fill="#242424" d="M 17.5,17.5 C 18.1157,18.7978 18.1157,19.7978 17.5,20.5C 16.5,20.5 15.5,20.5 14.5,20.5C 14.5,19.5 14.5,18.5 14.5,17.5C 15.5,17.5 16.5,17.5 17.5,17.5 Z"/></g>
<g><path style="opacity:1" fill="#818181" d="M 12.5,19.5 C 12.1788,21.0481 11.1788,21.7148 9.5,21.5C 9.82124,19.9519 10.8212,19.2852 12.5,19.5 Z"/></g>
<g><path style="opacity:1" fill="#1c1c1c" d="M 31.5,20.5 C 31.5,21.5 31.5,22.5 31.5,23.5C 28.8333,22.5 28.8333,21.5 31.5,20.5 Z"/></g>
<g><path style="opacity:1" fill="#5b5b5b" d="M -0.5,23.5 C 1.40849,23.8834 2.90849,24.8834 4,26.5C 4.70956,25.0267 5.87623,24.3601 7.5,24.5C 7.5,25.5 7.5,26.5 7.5,27.5C 4.87283,28.0916 2.20616,28.4249 -0.5,28.5C -0.5,26.8333 -0.5,25.1667 -0.5,23.5 Z"/></g>
<g><path style="opacity:1" fill="#7e7e7e" d="M 31.5,25.5 C 31.5,26.1667 31.5,26.8333 31.5,27.5C 30.5,27.5 29.5,27.5 28.5,27.5C 28.1667,27.5 27.8333,27.5 27.5,27.5C 28.1834,25.8235 29.5168,25.1568 31.5,25.5 Z"/></g>
<g><path style="opacity:1" fill="#575757" d="M 17.5,16.5 C 20.5184,16.3354 23.5184,16.502 26.5,17C 27,17.5 27.5,18 28,18.5C 29.0113,17.6634 30.1779,17.33 31.5,17.5C 31.5,18.5 31.5,19.5 31.5,20.5C 28.8333,21.5 28.8333,22.5 31.5,23.5C 31.5,24.1667 31.5,24.8333 31.5,25.5C 29.5168,25.1568 28.1834,25.8235 27.5,27.5C 25.4862,27.3915 23.8195,28.0582 22.5,29.5C 22.38,28.4138 21.7133,27.7472 20.5,27.5C 19.8333,27.8333 19.1667,28.1667 18.5,28.5C 19.325,29.3857 20.325,29.719 21.5,29.5C 21.5,30.1667 21.5,30.8333 21.5,31.5C 18.5,31.5 15.5,31.5 12.5,31.5C 11.5,28.8333 10.5,28.8333 9.5,31.5C 9.16667,31.5 8.83333,31.5 8.5,31.5C 8.5,30.5 8.5,29.5 8.5,28.5C 15.1664,27.4212 21.8331,25.9212 28.5,24C 24.5152,23.2362 20.6818,23.7362 17,25.5C 15.6244,25.3158 14.7911,24.6491 14.5,23.5C 12.8333,22.8333 11.1667,22.1667 9.5,21.5C 11.1788,21.7148 12.1788,21.0481 12.5,19.5C 13.2223,20.5511 14.2223,21.2178 15.5,21.5C 15.5,22.5 15.5,23.5 15.5,24.5C 16.5,24.5 17.5,24.5 18.5,24.5C 18.7373,23.209 18.404,22.209 17.5,21.5C 17.5,21.1667 17.5,20.8333 17.5,20.5C 18.1157,19.7978 18.1157,18.7978 17.5,17.5C 17.5,17.1667 17.5,16.8333 17.5,16.5 Z"/></g>
<g><path style="opacity:1" fill="#969796" d="M 15.5,21.5 C 16.1667,21.5 16.8333,21.5 17.5,21.5C 18.404,22.209 18.7373,23.209 18.5,24.5C 17.5,24.5 16.5,24.5 15.5,24.5C 15.5,23.5 15.5,22.5 15.5,21.5 Z"/></g>
<g><path style="opacity:1" fill="#818181" d="M 19.5,19.5 C 22.7341,19.2046 25.7341,19.8713 28.5,21.5C 27.8333,21.8333 27.1667,22.1667 26.5,22.5C 23.594,22.3567 21.2607,21.3567 19.5,19.5 Z"/></g>
<g><path style="opacity:1" fill="#343434" d="M 27.5,27.5 C 27.8333,27.5 28.1667,27.5 28.5,27.5C 27.1938,28.4674 26.5271,29.8007 26.5,31.5C 24.8333,31.5 23.1667,31.5 21.5,31.5C 21.5,30.8333 21.5,30.1667 21.5,29.5C 21.8333,29.5 22.1667,29.5 22.5,29.5C 23.8195,28.0582 25.4862,27.3915 27.5,27.5 Z"/></g>
<g><path style="opacity:1" fill="#525252" d="M 28.5,27.5 C 29.5,27.5 30.5,27.5 31.5,27.5C 31.5,28.8333 31.5,30.1667 31.5,31.5C 29.8333,31.5 28.1667,31.5 26.5,31.5C 26.5271,29.8007 27.1938,28.4674 28.5,27.5 Z"/></g>
<g><path style="opacity:1" fill="#787878" d="M 22.5,29.5 C 22.1667,29.5 21.8333,29.5 21.5,29.5C 20.325,29.719 19.325,29.3857 18.5,28.5C 19.1667,28.1667 19.8333,27.8333 20.5,27.5C 21.7133,27.7472 22.38,28.4138 22.5,29.5 Z"/></g>
<g><path style="opacity:1" fill="#969796" d="M 12.5,31.5 C 11.5,31.5 10.5,31.5 9.5,31.5C 10.5,28.8333 11.5,28.8333 12.5,31.5 Z"/></g>
</svg>
