<?xml version="1.0" encoding="UTF-8"?>
<!DOCTYPE svg PUBLIC "-//W3C//DTD SVG 1.1//EN" "http://www.w3.org/Graphics/SVG/1.1/DTD/svg11.dtd">
<svg xmlns="http://www.w3.org/2000/svg" version="1.1" width="16px" height="16px" style="shape-rendering:geometricPrecision; text-rendering:geometricPrecision; image-rendering:optimizeQuality; fill-rule:evenodd; clip-rule:evenodd" xmlns:xlink="http://www.w3.org/1999/xlink">
<g><path style="opacity:1" fill="#7f8384" d="M 7.5,-0.5 C 10.1667,-0.5 12.8333,-0.5 15.5,-0.5C 15.5,3.5 15.5,7.5 15.5,11.5C 14.609,10.8902 13.609,10.5569 12.5,10.5C 10.8828,11.038 9.2161,11.3713 7.5,11.5C 6.04125,11.5674 4.70792,11.2341 3.5,10.5C 4.20895,9.59603 5.20895,9.26269 6.5,9.5C 7.87344,9.65668 9.20677,9.49001 10.5,9C 9.94404,8.61742 9.61071,8.11742 9.5,7.5C 10.8734,7.65668 12.2068,7.49001 13.5,7C 12.9056,6.53566 12.2389,6.36899 11.5,6.5C 11.5,5.16667 10.8333,4.5 9.5,4.5C 7.97237,3.69079 6.3057,3.02412 4.5,2.5C 5.90018,1.89992 6.90018,0.899922 7.5,-0.5 Z"/></g>
<g><path style="opacity:1" fill="#838689" d="M -0.5,-0.5 C 2.16667,-0.5 4.83333,-0.5 7.5,-0.5C 6.90018,0.899922 5.90018,1.89992 4.5,2.5C 4.08247,3.22158 3.4158,3.72158 2.5,4C 3.09442,4.46434 3.76109,4.63101 4.5,4.5C 3.83333,5.16667 3.16667,5.83333 2.5,6.5C 2.42265,7.74975 1.75598,8.58309 0.5,9C 1.52656,9.51328 2.52656,10.0133 3.5,10.5C 2.2946,11.6857 0.961264,11.6857 -0.5,10.5C -0.5,6.83333 -0.5,3.16667 -0.5,-0.5 Z"/></g>
<g><path style="opacity:1" fill="#a5e0fb" d="M 4.5,4.5 C 5.75618,4.46141 6.75618,4.96141 7.5,6C 5.86586,6.49351 4.19919,6.66018 2.5,6.5C 3.16667,5.83333 3.83333,5.16667 4.5,4.5 Z"/></g>
<g><path style="opacity:1" fill="#95e6f9" d="M 9.5,4.5 C 10.8333,4.5 11.5,5.16667 11.5,6.5C 10.1667,6.5 9.5,5.83333 9.5,4.5 Z"/></g>
<g><path style="opacity:1" fill="#757575" d="M 4.5,2.5 C 6.3057,3.02412 7.97237,3.69079 9.5,4.5C 9.5,5.83333 10.1667,6.5 11.5,6.5C 12.2389,6.36899 12.9056,6.53566 13.5,7C 12.2068,7.49001 10.8734,7.65668 9.5,7.5C 7.97306,7.42702 6.97306,8.09368 6.5,9.5C 5.20895,9.26269 4.20895,9.59603 3.5,10.5C 2.52656,10.0133 1.52656,9.51328 0.5,9C 1.75598,8.58309 2.42265,7.74975 2.5,6.5C 4.19919,6.66018 5.86586,6.49351 7.5,6C 6.75618,4.96141 5.75618,4.46141 4.5,4.5C 3.76109,4.63101 3.09442,4.46434 2.5,4C 3.4158,3.72158 4.08247,3.22158 4.5,2.5 Z"/></g>
<g><path style="opacity:1" fill="#96ecf8" d="M 9.5,7.5 C 9.61071,8.11742 9.94404,8.61742 10.5,9C 9.20677,9.49001 7.87344,9.65668 6.5,9.5C 6.97306,8.09368 7.97306,7.42702 9.5,7.5 Z"/></g>
<g><path style="opacity:1" fill="#787c7d" d="M -0.5,10.5 C 0.961264,11.6857 2.2946,11.6857 3.5,10.5C 4.70792,11.2341 6.04125,11.5674 7.5,11.5C 7.83333,12.1667 8.16667,12.8333 8.5,13.5C 7.00478,13.9887 5.67145,14.6554 4.5,15.5C 2.83333,15.5 1.16667,15.5 -0.5,15.5C -0.5,13.8333 -0.5,12.1667 -0.5,10.5 Z"/></g>
<g><path style="opacity:1" fill="#96e4f9" d="M 12.5,10.5 C 12.6107,11.1174 12.944,11.6174 13.5,12C 11.8455,12.6077 10.1789,13.1077 8.5,13.5C 8.16667,12.8333 7.83333,12.1667 7.5,11.5C 9.2161,11.3713 10.8828,11.038 12.5,10.5 Z"/></g>
<g><path style="opacity:1" fill="#808080" d="M 12.5,10.5 C 13.609,10.5569 14.609,10.8902 15.5,11.5C 15.5,12.8333 15.5,14.1667 15.5,15.5C 11.8333,15.5 8.16667,15.5 4.5,15.5C 5.67145,14.6554 7.00478,13.9887 8.5,13.5C 10.1789,13.1077 11.8455,12.6077 13.5,12C 12.944,11.6174 12.6107,11.1174 12.5,10.5 Z"/></g>
</svg>
