<?xml version="1.0" encoding="UTF-8"?>
<!DOCTYPE svg PUBLIC "-//W3C//DTD SVG 1.1//EN" "http://www.w3.org/Graphics/SVG/1.1/DTD/svg11.dtd">
<svg xmlns="http://www.w3.org/2000/svg" version="1.1" width="32px" height="32px" style="shape-rendering:geometricPrecision; text-rendering:geometricPrecision; image-rendering:optimizeQuality; fill-rule:evenodd; clip-rule:evenodd" xmlns:xlink="http://www.w3.org/1999/xlink">
<g><path style="opacity:1" fill="#7b7b7b" d="M -0.5,-0.5 C 3.16667,-0.5 6.83333,-0.5 10.5,-0.5C 8.69481,1.19686 6.36148,2.03019 3.5,2C 4.44802,2.48278 5.44802,2.64945 6.5,2.5C 6.5,3.5 6.5,4.5 6.5,5.5C 4.5,5.5 2.5,5.5 0.5,5.5C 0.480152,7.14297 1.14682,8.4763 2.5,9.5C 1.67504,10.3857 0.675044,10.719 -0.5,10.5C -0.5,6.83333 -0.5,3.16667 -0.5,-0.5 Z"/></g>
<g><path style="opacity:1" fill="#858585" d="M 10.5,-0.5 C 14.1667,-0.5 17.8333,-0.5 21.5,-0.5C 22.1098,0.391047 22.4431,1.39105 22.5,2.5C 22.5,2.83333 22.5,3.16667 22.5,3.5C 20.5853,3.21552 18.9187,3.54885 17.5,4.5C 16.5,4.5 15.5,4.5 14.5,4.5C 13.0813,3.54885 11.4147,3.21552 9.5,3.5C 8.79105,2.59603 7.79105,2.26269 6.5,2.5C 5.44802,2.64945 4.44802,2.48278 3.5,2C 6.36148,2.03019 8.69481,1.19686 10.5,-0.5 Z"/></g>
<g><path style="opacity:1" fill="#87a6b8" d="M 22.5,2.5 C 24.1667,2.5 25.8333,2.5 27.5,2.5C 27.5,3.5 27.5,4.5 27.5,5.5C 25.2188,5.92271 23.5521,5.25605 22.5,3.5C 22.5,3.16667 22.5,2.83333 22.5,2.5 Z"/></g>
<g><path style="opacity:1" fill="#7b9fb3" d="M 6.5,2.5 C 7.79105,2.26269 8.79105,2.59603 9.5,3.5C 9.67158,4.49162 9.33825,5.15829 8.5,5.5C 7.83333,5.5 7.16667,5.5 6.5,5.5C 6.5,4.5 6.5,3.5 6.5,2.5 Z"/></g>
<g><path style="opacity:1" fill="#777878" d="M 9.5,3.5 C 11.4147,3.21552 13.0813,3.54885 14.5,4.5C 13.4655,6.81702 14.4655,7.81702 17.5,7.5C 17.5,6.5 17.5,5.5 17.5,4.5C 18.9187,3.54885 20.5853,3.21552 22.5,3.5C 23.5521,5.25605 25.2188,5.92271 27.5,5.5C 24.815,5.96883 21.815,6.96883 18.5,8.5C 18.5,9.16667 18.5,9.83333 18.5,10.5C 18.5,11.1667 18.5,11.8333 18.5,12.5C 17.5,12.5 16.5,12.5 15.5,12.5C 15.5,11.1667 14.8333,10.5 13.5,10.5C 13.2089,9.35089 12.3756,8.68423 11,8.5C 9.93015,8.52804 9.09682,8.86137 8.5,9.5C 7.32496,9.71901 6.32496,9.38568 5.5,8.5C 6.99346,7.85892 7.99346,6.85892 8.5,5.5C 9.33825,5.15829 9.67158,4.49162 9.5,3.5 Z"/></g>
<g><path style="opacity:1" fill="#7e7e7e" d="M 21.5,-0.5 C 24.8333,-0.5 28.1667,-0.5 31.5,-0.5C 31.5,2.16667 31.5,4.83333 31.5,7.5C 29.0842,8.96823 26.4175,9.63489 23.5,9.5C 22.0813,8.54885 20.4147,8.21552 18.5,8.5C 21.815,6.96883 24.815,5.96883 27.5,5.5C 27.5,4.5 27.5,3.5 27.5,2.5C 25.8333,2.5 24.1667,2.5 22.5,2.5C 22.4431,1.39105 22.1098,0.391047 21.5,-0.5 Z"/></g>
<g><path style="opacity:1" fill="#818181" d="M 6.5,5.5 C 7.16667,5.5 7.83333,5.5 8.5,5.5C 7.99346,6.85892 6.99346,7.85892 5.5,8.5C 6.32496,9.38568 7.32496,9.71901 8.5,9.5C 8.5,9.83333 8.5,10.1667 8.5,10.5C 7.16667,10.5 5.83333,10.5 4.5,10.5C 4.26269,11.791 4.59603,12.791 5.5,13.5C 5.5,13.8333 5.5,14.1667 5.5,14.5C 3.83333,14.5 2.16667,14.5 0.5,14.5C 0.262695,15.791 0.596028,16.791 1.5,17.5C 3.29439,18.2329 4.96106,19.2329 6.5,20.5C 6.5,20.8333 6.5,21.1667 6.5,21.5C 5.90318,22.1386 5.06985,22.472 4,22.5C 2.39332,21.9265 0.893316,21.2598 -0.5,20.5C -0.5,17.1667 -0.5,13.8333 -0.5,10.5C 0.675044,10.719 1.67504,10.3857 2.5,9.5C 1.14682,8.4763 0.480152,7.14297 0.5,5.5C 2.5,5.5 4.5,5.5 6.5,5.5 Z"/></g>
<g><path style="opacity:1" fill="#80bcc4" d="M 14.5,4.5 C 15.5,4.5 16.5,4.5 17.5,4.5C 17.5,5.5 17.5,6.5 17.5,7.5C 14.4655,7.81702 13.4655,6.81702 14.5,4.5 Z"/></g>
<g><path style="opacity:1" fill="#a9afb3" d="M 13.5,10.5 C 13.1667,10.5 12.8333,10.5 12.5,10.5C 11.2946,9.31434 9.96126,9.31434 8.5,10.5C 8.5,10.1667 8.5,9.83333 8.5,9.5C 9.09682,8.86137 9.93015,8.52804 11,8.5C 12.3756,8.68423 13.2089,9.35089 13.5,10.5 Z"/></g>
<g><path style="opacity:1" fill="#abb1b4" d="M 18.5,8.5 C 20.4147,8.21552 22.0813,8.54885 23.5,9.5C 23.5,9.83333 23.5,10.1667 23.5,10.5C 23.1667,10.5 22.8333,10.5 22.5,10.5C 21.5,9.16667 20.5,9.16667 19.5,10.5C 19.1667,10.5 18.8333,10.5 18.5,10.5C 18.5,9.83333 18.5,9.16667 18.5,8.5 Z"/></g>
<g><path style="opacity:1" fill="#b0b3b6" d="M 8.5,10.5 C 7.73747,11.2679 6.73747,11.7679 5.5,12C 6.09442,12.4643 6.76109,12.631 7.5,12.5C 7.5,12.8333 7.5,13.1667 7.5,13.5C 6.83333,13.5 6.16667,13.5 5.5,13.5C 4.59603,12.791 4.26269,11.791 4.5,10.5C 5.83333,10.5 7.16667,10.5 8.5,10.5 Z"/></g>
<g><path style="opacity:1" fill="#aae8fb" d="M 22.5,10.5 C 21.5,13.1667 20.5,13.1667 19.5,10.5C 20.5,9.16667 21.5,9.16667 22.5,10.5 Z"/></g>
<g><path style="opacity:1" fill="#7c7c7c" d="M 31.5,7.5 C 31.5,10.1667 31.5,12.8333 31.5,15.5C 27.5,15.5 23.5,15.5 19.5,15.5C 19.5,15.1667 19.5,14.8333 19.5,14.5C 21.8568,14.6633 24.1902,14.4966 26.5,14C 25.552,13.5172 24.552,13.3505 23.5,13.5C 23.5,12.5 23.5,11.5 23.5,10.5C 23.5,10.1667 23.5,9.83333 23.5,9.5C 26.4175,9.63489 29.0842,8.96823 31.5,7.5 Z"/></g>
<g><path style="opacity:1" fill="#ade1fb" d="M 12.5,10.5 C 12.9175,11.2216 13.5842,11.7216 14.5,12C 12.1902,12.4966 9.85684,12.6633 7.5,12.5C 6.76109,12.631 6.09442,12.4643 5.5,12C 6.73747,11.7679 7.73747,11.2679 8.5,10.5C 9.96126,9.31434 11.2946,9.31434 12.5,10.5 Z"/></g>
<g><path style="opacity:1" fill="#74a9b3" d="M 12.5,10.5 C 12.8333,10.5 13.1667,10.5 13.5,10.5C 14.8333,10.5 15.5,11.1667 15.5,12.5C 13.0521,13.4731 10.3854,13.8064 7.5,13.5C 7.5,13.1667 7.5,12.8333 7.5,12.5C 9.85684,12.6633 12.1902,12.4966 14.5,12C 13.5842,11.7216 12.9175,11.2216 12.5,10.5 Z"/></g>
<g><path style="opacity:1" fill="#75a9b3" d="M 18.5,10.5 C 18.8333,10.5 19.1667,10.5 19.5,10.5C 20.5,13.1667 21.5,13.1667 22.5,10.5C 22.8333,10.5 23.1667,10.5 23.5,10.5C 23.5,11.5 23.5,12.5 23.5,13.5C 21.5853,13.7845 19.9187,13.4511 18.5,12.5C 18.5,11.8333 18.5,11.1667 18.5,10.5 Z"/></g>
<g><path style="opacity:1" fill="#757575" d="M 15.5,12.5 C 16.5,12.5 17.5,12.5 18.5,12.5C 19.9187,13.4511 21.5853,13.7845 23.5,13.5C 24.552,13.3505 25.552,13.5172 26.5,14C 24.1902,14.4966 21.8568,14.6633 19.5,14.5C 17.2188,14.0773 15.5521,14.744 14.5,16.5C 12.9891,17.5025 11.3224,18.1692 9.5,18.5C 7.82124,18.2852 6.82124,18.9519 6.5,20.5C 4.96106,19.2329 3.29439,18.2329 1.5,17.5C 2.83333,17.5 4.16667,17.5 5.5,17.5C 5.5,16.5 5.5,15.5 5.5,14.5C 5.5,14.1667 5.5,13.8333 5.5,13.5C 6.16667,13.5 6.83333,13.5 7.5,13.5C 10.3854,13.8064 13.0521,13.4731 15.5,12.5 Z"/></g>
<g><path style="opacity:1" fill="#a9aeb1" d="M 19.5,14.5 C 19.5,14.8333 19.5,15.1667 19.5,15.5C 19.5,15.8333 19.5,16.1667 19.5,16.5C 19.1667,16.5 18.8333,16.5 18.5,16.5C 17.2946,15.3143 15.9613,15.3143 14.5,16.5C 15.5521,14.744 17.2188,14.0773 19.5,14.5 Z"/></g>
<g><path style="opacity:1" fill="#85a4b6" d="M 5.5,14.5 C 5.5,15.5 5.5,16.5 5.5,17.5C 4.16667,17.5 2.83333,17.5 1.5,17.5C 0.596028,16.791 0.262695,15.791 0.5,14.5C 2.16667,14.5 3.83333,14.5 5.5,14.5 Z"/></g>
<g><path style="opacity:1" fill="#a2ecf6" d="M 18.5,16.5 C 18.9175,17.2216 19.5842,17.7216 20.5,18C 18.5273,18.4955 16.5273,18.6621 14.5,18.5C 13.4937,18.0623 13.4937,17.3957 14.5,16.5C 15.9613,15.3143 17.2946,15.3143 18.5,16.5 Z"/></g>
<g><path style="opacity:1" fill="#72b1b5" d="M 18.5,16.5 C 18.8333,16.5 19.1667,16.5 19.5,16.5C 21.0481,16.8212 21.7148,17.8212 21.5,19.5C 20.5,19.5 19.5,19.5 18.5,19.5C 17.1667,19.5 15.8333,19.5 14.5,19.5C 14.5,19.1667 14.5,18.8333 14.5,18.5C 16.5273,18.6621 18.5273,18.4955 20.5,18C 19.5842,17.7216 18.9175,17.2216 18.5,16.5 Z"/></g>
<g><path style="opacity:1" fill="#838383" d="M 19.5,16.5 C 19.5,16.1667 19.5,15.8333 19.5,15.5C 23.5,15.5 27.5,15.5 31.5,15.5C 31.5,20.8333 31.5,26.1667 31.5,31.5C 30.1667,31.5 28.8333,31.5 27.5,31.5C 27.7214,30.2652 28.3881,29.2652 29.5,28.5C 28.8075,27.4822 28.1408,26.4822 27.5,25.5C 27.7148,23.8212 27.0481,22.8212 25.5,22.5C 24.9473,20.4482 23.9473,20.1148 22.5,21.5C 21.8333,21.8333 21.1667,22.1667 20.5,22.5C 18.8333,22.5 17.1667,22.5 15.5,22.5C 16.9002,21.8999 17.9002,20.8999 18.5,19.5C 19.5,19.5 20.5,19.5 21.5,19.5C 21.7148,17.8212 21.0481,16.8212 19.5,16.5 Z"/></g>
<g><path style="opacity:1" fill="#7a9eb1" d="M 9.5,18.5 C 9.5,19.5 9.5,20.5 9.5,21.5C 8.5,21.5 7.5,21.5 6.5,21.5C 6.5,21.1667 6.5,20.8333 6.5,20.5C 6.82124,18.9519 7.82124,18.2852 9.5,18.5 Z"/></g>
<g><path style="opacity:1" fill="#8e9193" d="M 14.5,16.5 C 13.4937,17.3957 13.4937,18.0623 14.5,18.5C 14.5,18.8333 14.5,19.1667 14.5,19.5C 12.9891,20.5025 11.3224,21.1692 9.5,21.5C 9.5,20.5 9.5,19.5 9.5,18.5C 11.3224,18.1692 12.9891,17.5025 14.5,16.5 Z"/></g>
<g><path style="opacity:1" fill="#7db7bc" d="M 22.5,21.5 C 23.9473,20.1148 24.9473,20.4482 25.5,22.5C 24.609,21.8902 23.609,21.5569 22.5,21.5 Z"/></g>
<g><path style="opacity:1" fill="#777777" d="M 14.5,19.5 C 15.8333,19.5 17.1667,19.5 18.5,19.5C 17.9002,20.8999 16.9002,21.8999 15.5,22.5C 14.1148,23.9473 14.4482,24.9473 16.5,25.5C 16.5,25.8333 16.5,26.1667 16.5,26.5C 14.0842,27.9682 11.4175,28.6349 8.5,28.5C 8.5,29.5 8.5,30.5 8.5,31.5C 5.5,31.5 2.5,31.5 -0.5,31.5C -0.5,27.8333 -0.5,24.1667 -0.5,20.5C 0.893316,21.2598 2.39332,21.9265 4,22.5C 5.06985,22.472 5.90318,22.1386 6.5,21.5C 7.5,21.5 8.5,21.5 9.5,21.5C 11.3224,21.1692 12.9891,20.5025 14.5,19.5 Z"/></g>
<g><path style="opacity:1" fill="#70e0f5" d="M 22.5,21.5 C 23.609,21.5569 24.609,21.8902 25.5,22.5C 27.0311,23.9245 26.6977,24.5912 24.5,24.5C 23.4489,23.7777 22.7822,22.7777 22.5,21.5 Z"/></g>
<g><path style="opacity:1" fill="#a1adb5" d="M 15.5,22.5 C 17.1667,22.5 18.8333,22.5 20.5,22.5C 18.4905,23.0174 17.1571,23.684 16.5,24.5C 16.5,24.8333 16.5,25.1667 16.5,25.5C 14.4482,24.9473 14.1148,23.9473 15.5,22.5 Z"/></g>
<g><path style="opacity:1" fill="#b1dffb" d="M 22.5,21.5 C 22.7822,22.7777 23.4489,23.7777 24.5,24.5C 23.1667,24.5 21.8333,24.5 20.5,24.5C 19.1667,24.5 17.8333,24.5 16.5,24.5C 17.1571,23.684 18.4905,23.0174 20.5,22.5C 21.1667,22.1667 21.8333,21.8333 22.5,21.5 Z"/></g>
<g><path style="opacity:1" fill="#7faeb5" d="M 4.5,24.5 C 6.16667,24.5 7.83333,24.5 9.5,24.5C 9.5,25.5 9.5,26.5 9.5,27.5C 7.83333,27.5 6.16667,27.5 4.5,27.5C 4.5,26.5 4.5,25.5 4.5,24.5 Z"/></g>
<g><path style="opacity:1" fill="#8debf5" d="M 16.5,25.5 C 16.5,25.1667 16.5,24.8333 16.5,24.5C 17.8333,24.5 19.1667,24.5 20.5,24.5C 19.7893,26.8418 18.456,27.1751 16.5,25.5 Z"/></g>
<g><path style="opacity:1" fill="#74aeb4" d="M 25.5,22.5 C 27.0481,22.8212 27.7148,23.8212 27.5,25.5C 24.5123,25.4388 21.6789,26.1055 19,27.5C 17.9302,27.472 17.0968,27.1386 16.5,26.5C 16.5,26.1667 16.5,25.8333 16.5,25.5C 18.456,27.1751 19.7893,26.8418 20.5,24.5C 21.8333,24.5 23.1667,24.5 24.5,24.5C 26.6977,24.5912 27.0311,23.9245 25.5,22.5 Z"/></g>
<g><path style="opacity:1" fill="#7f7f7f" d="M 27.5,25.5 C 28.1408,26.4822 28.8075,27.4822 29.5,28.5C 28.3881,29.2652 27.7214,30.2652 27.5,31.5C 21.1667,31.5 14.8333,31.5 8.5,31.5C 8.5,30.5 8.5,29.5 8.5,28.5C 11.4175,28.6349 14.0842,27.9682 16.5,26.5C 17.0968,27.1386 17.9302,27.472 19,27.5C 21.6789,26.1055 24.5123,25.4388 27.5,25.5 Z"/></g>
</svg>
