<?xml version="1.0" encoding="UTF-8"?>
<!DOCTYPE svg PUBLIC "-//W3C//DTD SVG 1.1//EN" "http://www.w3.org/Graphics/SVG/1.1/DTD/svg11.dtd">
<svg xmlns="http://www.w3.org/2000/svg" version="1.1" width="32px" height="32px" style="shape-rendering:geometricPrecision; text-rendering:geometricPrecision; image-rendering:optimizeQuality; fill-rule:evenodd; clip-rule:evenodd" xmlns:xlink="http://www.w3.org/1999/xlink">
<g><path style="opacity:1" fill="#f1dd46" d="M 19.5,-0.5 C 22.8333,-0.5 26.1667,-0.5 29.5,-0.5C 29.5,6.16667 29.5,12.8333 29.5,19.5C 29.1667,19.5 28.8333,19.5 28.5,19.5C 28.5,18.8333 28.5,18.1667 28.5,17.5C 28.5,15.5 28.5,13.5 28.5,11.5C 28.5,8.5 28.5,5.5 28.5,2.5C 21.6866,1.50881 14.6866,1.17547 7.5,1.5C 6.83333,1.5 6.16667,1.5 5.5,1.5C 10.1667,0.833333 14.8333,0.166667 19.5,-0.5 Z"/></g>
<g><path style="opacity:1" fill="#f6e75a" d="M 5.5,1.5 C 4.16667,2.16667 2.83333,2.83333 1.5,3.5C 1.5,4.83333 1.5,6.16667 1.5,7.5C 1.5,10.5 1.5,13.5 1.5,16.5C 1.5,17.5 1.5,18.5 1.5,19.5C 1.5,21.1667 1.5,22.8333 1.5,24.5C 1.5,25.1667 1.5,25.8333 1.5,26.5C 1.16667,26.5 0.833333,26.5 0.5,26.5C 0.5,18.8333 0.5,11.1667 0.5,3.5C 1.55213,1.74395 3.21879,1.07729 5.5,1.5 Z"/></g>
<g><path style="opacity:1" fill="#fef758" d="M 7.5,1.5 C 14.6866,1.17547 21.6866,1.50881 28.5,2.5C 26.0504,2.29803 23.717,2.63137 21.5,3.5C 20.5,3.5 19.5,3.5 18.5,3.5C 18.5408,7.24344 17.8741,7.4101 16.5,4C 14.1873,3.33802 11.854,2.83802 9.5,2.5C 9.76781,4.09903 9.43448,5.43236 8.5,6.5C 8.73731,5.20895 8.40397,4.20895 7.5,3.5C 7.5,2.83333 7.5,2.16667 7.5,1.5 Z"/></g>
<g><path style="opacity:1" fill="#e5c43b" d="M -0.5,-0.5 C 6.16667,-0.5 12.8333,-0.5 19.5,-0.5C 14.8333,0.166667 10.1667,0.833333 5.5,1.5C 3.21879,1.07729 1.55213,1.74395 0.5,3.5C 0.166667,3.5 -0.166667,3.5 -0.5,3.5C -0.5,2.16667 -0.5,0.833333 -0.5,-0.5 Z"/></g>
<g><path style="opacity:1" fill="#fef464" d="M 5.5,1.5 C 6.16667,1.5 6.83333,1.5 7.5,1.5C 7.5,2.16667 7.5,2.83333 7.5,3.5C 5.5,3.5 3.5,3.5 1.5,3.5C 2.83333,2.83333 4.16667,2.16667 5.5,1.5 Z"/></g>
<g><path style="opacity:1" fill="#fdfb53" d="M 21.5,3.5 C 19.8872,4.83814 19.3872,6.5048 20,8.5C 21.9483,9.10936 23.7816,9.77602 25.5,10.5C 23.2143,10.595 21.2143,11.2616 19.5,12.5C 16.001,12.741 15.6677,11.9076 18.5,10C 14.1454,9.3665 9.81207,9.03316 5.5,9C 5.21901,12.0168 5.21901,15.1834 5.5,18.5C 4.84233,17.6016 4.17566,16.6016 3.5,15.5C 2.81654,15.8627 2.14987,16.1961 1.5,16.5C 1.5,13.5 1.5,10.5 1.5,7.5C 2.14987,7.80393 2.81654,8.13727 3.5,8.5C 4.84152,6.99512 6.50819,6.32846 8.5,6.5C 9.43448,5.43236 9.76781,4.09903 9.5,2.5C 11.854,2.83802 14.1873,3.33802 16.5,4C 17.8741,7.4101 18.5408,7.24344 18.5,3.5C 19.5,3.5 20.5,3.5 21.5,3.5 Z"/></g>
<g><path style="opacity:1" fill="#fffd6d" d="M 1.5,3.5 C 3.5,3.5 5.5,3.5 7.5,3.5C 8.40397,4.20895 8.73731,5.20895 8.5,6.5C 6.50819,6.32846 4.84152,6.99512 3.5,8.5C 2.81654,8.13727 2.14987,7.80393 1.5,7.5C 1.5,6.16667 1.5,4.83333 1.5,3.5 Z"/></g>
<g><path style="opacity:1" fill="#fdf646" d="M 28.5,2.5 C 28.5,5.5 28.5,8.5 28.5,11.5C 25.8181,15.8344 22.4848,16.5011 18.5,13.5C 19.1667,13.5 19.8333,13.5 20.5,13.5C 23.8081,15.2838 25.4747,14.2838 25.5,10.5C 23.7816,9.77602 21.9483,9.10936 20,8.5C 19.3872,6.5048 19.8872,4.83814 21.5,3.5C 23.717,2.63137 26.0504,2.29803 28.5,2.5 Z"/></g>
<g><path style="opacity:1" fill="#e9ce35" d="M 29.5,-0.5 C 30.1667,-0.5 30.8333,-0.5 31.5,-0.5C 31.5,6.16667 31.5,12.8333 31.5,19.5C 30.8333,19.5 30.1667,19.5 29.5,19.5C 29.5,12.8333 29.5,6.16667 29.5,-0.5 Z"/></g>
<g><path style="opacity:1" fill="#fef74a" d="M 19.5,12.5 C 20.1667,12.5 20.5,12.8333 20.5,13.5C 19.8333,13.5 19.1667,13.5 18.5,13.5C 15.5525,13.7771 12.7191,13.4438 10,12.5C 9.24956,13.1258 8.41623,13.6258 7.5,14C 8.30806,14.3076 8.97473,14.8076 9.5,15.5C 14.6511,16.1668 19.6511,16.8335 24.5,17.5C 20.1667,17.5 15.8333,17.5 11.5,17.5C 9.85703,17.5198 8.5237,16.8532 7.5,15.5C 6.82434,16.6016 6.15767,17.6016 5.5,18.5C 5.21901,15.1834 5.21901,12.0168 5.5,9C 9.81207,9.03316 14.1454,9.3665 18.5,10C 15.6677,11.9076 16.001,12.741 19.5,12.5 Z"/></g>
<g><path style="opacity:1" fill="#fbfb46" d="M 25.5,10.5 C 25.4747,14.2838 23.8081,15.2838 20.5,13.5C 20.5,12.8333 20.1667,12.5 19.5,12.5C 21.2143,11.2616 23.2143,10.595 25.5,10.5 Z"/></g>
<g><path style="opacity:1" fill="#fef142" d="M 28.5,11.5 C 28.5,13.5 28.5,15.5 28.5,17.5C 27.1667,17.5 25.8333,17.5 24.5,17.5C 19.6511,16.8335 14.6511,16.1668 9.5,15.5C 8.97473,14.8076 8.30806,14.3076 7.5,14C 8.41623,13.6258 9.24956,13.1258 10,12.5C 12.7191,13.4438 15.5525,13.7771 18.5,13.5C 22.4848,16.5011 25.8181,15.8344 28.5,11.5 Z"/></g>
<g><path style="opacity:1" fill="#fefc67" d="M 5.5,18.5 C 6.15767,17.6016 6.82434,16.6016 7.5,15.5C 8.5237,16.8532 9.85703,17.5198 11.5,17.5C 14.5221,18.8779 17.5221,20.5446 20.5,22.5C 19.8333,23.5 19.1667,24.5 18.5,25.5C 12.8936,26.4069 7.22697,26.7402 1.5,26.5C 1.5,25.8333 1.5,25.1667 1.5,24.5C 5.63477,25.1102 9.30143,24.2768 12.5,22C 8.95906,20.5597 5.29239,19.7264 1.5,19.5C 1.5,18.5 1.5,17.5 1.5,16.5C 2.14987,16.1961 2.81654,15.8627 3.5,15.5C 4.17566,16.6016 4.84233,17.6016 5.5,18.5 Z"/></g>
<g><path style="opacity:1" fill="#fefc5a" d="M 11.5,17.5 C 15.8333,17.5 20.1667,17.5 24.5,17.5C 25.8333,17.5 27.1667,17.5 28.5,17.5C 28.5,18.1667 28.5,18.8333 28.5,19.5C 28.5,19.8333 28.5,20.1667 28.5,20.5C 25.5491,20.2872 22.8825,20.9539 20.5,22.5C 17.5221,20.5446 14.5221,18.8779 11.5,17.5 Z"/></g>
<g><path style="opacity:1" fill="#fefd73" d="M 1.5,19.5 C 5.29239,19.7264 8.95906,20.5597 12.5,22C 9.30143,24.2768 5.63477,25.1102 1.5,24.5C 1.5,22.8333 1.5,21.1667 1.5,19.5 Z"/></g>
<g><path style="opacity:1" fill="#e6be30" d="M 29.5,19.5 C 30.1667,19.5 30.8333,19.5 31.5,19.5C 31.5,20.8333 31.5,22.1667 31.5,23.5C 30.8333,23.5 30.1667,23.5 29.5,23.5C 29.5,22.1667 29.5,20.8333 29.5,19.5 Z"/></g>
<g><path style="opacity:1" fill="#fdee50" d="M 28.5,20.5 C 28.5,20.8333 28.5,21.1667 28.5,21.5C 26.4471,21.4021 24.7804,22.0687 23.5,23.5C 21.5887,24.075 19.922,25.075 18.5,26.5C 18.5,26.1667 18.5,25.8333 18.5,25.5C 19.1667,24.5 19.8333,23.5 20.5,22.5C 22.8825,20.9539 25.5491,20.2872 28.5,20.5 Z"/></g>
<g><path style="opacity:1" fill="#fadd3d" d="M 28.5,21.5 C 27.6649,22.9432 26.3316,23.9432 24.5,24.5C 24.7093,25.086 25.0426,25.586 25.5,26C 23.3716,26.6552 21.3716,27.4886 19.5,28.5C 20.8333,26.8333 22.1667,25.1667 23.5,23.5C 24.7804,22.0687 26.4471,21.4021 28.5,21.5 Z"/></g>
<g><path style="opacity:1" fill="#fef756" d="M 18.5,25.5 C 18.5,25.8333 18.5,26.1667 18.5,26.5C 16.0849,27.8142 13.2515,28.4809 10,28.5C 6.74848,28.4809 3.91514,27.8142 1.5,26.5C 7.22697,26.7402 12.8936,26.4069 18.5,25.5 Z"/></g>
<g><path style="opacity:1" fill="#f7d235" d="M 28.5,19.5 C 28.8333,19.5 29.1667,19.5 29.5,19.5C 29.5,20.8333 29.5,22.1667 29.5,23.5C 29.5674,24.9587 29.2341,26.2921 28.5,27.5C 25.5,28.1667 22.5,28.8333 19.5,29.5C 19.5,29.1667 19.5,28.8333 19.5,28.5C 21.3716,27.4886 23.3716,26.6552 25.5,26C 25.0426,25.586 24.7093,25.086 24.5,24.5C 26.3316,23.9432 27.6649,22.9432 28.5,21.5C 28.5,21.1667 28.5,20.8333 28.5,20.5C 28.5,20.1667 28.5,19.8333 28.5,19.5 Z"/></g>
<g><path style="opacity:1" fill="#e9b82a" d="M 29.5,23.5 C 30.1667,23.5 30.8333,23.5 31.5,23.5C 31.5,25.5 31.5,27.5 31.5,29.5C 30.5,29.5 29.5,29.5 28.5,29.5C 28.5,28.8333 28.5,28.1667 28.5,27.5C 29.2341,26.2921 29.5674,24.9587 29.5,23.5 Z"/></g>
<g><path style="opacity:1" fill="#f7e446" d="M 23.5,23.5 C 22.1667,25.1667 20.8333,26.8333 19.5,28.5C 19.5,28.8333 19.5,29.1667 19.5,29.5C 16.5,29.5 13.5,29.5 10.5,29.5C 7.16667,29.5 3.83333,29.5 0.5,29.5C 0.5,28.5 0.5,27.5 0.5,26.5C 0.833333,26.5 1.16667,26.5 1.5,26.5C 3.91514,27.8142 6.74848,28.4809 10,28.5C 13.2515,28.4809 16.0849,27.8142 18.5,26.5C 19.922,25.075 21.5887,24.075 23.5,23.5 Z"/></g>
<g><path style="opacity:1" fill="#fccb33" d="M 28.5,27.5 C 28.5,28.1667 28.5,28.8333 28.5,29.5C 26.8212,29.2852 25.8212,29.9519 25.5,31.5C 23.5,31.5 21.5,31.5 19.5,31.5C 19.5,30.8333 19.5,30.1667 19.5,29.5C 22.5,28.8333 25.5,28.1667 28.5,27.5 Z"/></g>
<g><path style="opacity:1" fill="#ecd441" d="M -0.5,3.5 C -0.166667,3.5 0.166667,3.5 0.5,3.5C 0.5,11.1667 0.5,18.8333 0.5,26.5C 0.5,27.5 0.5,28.5 0.5,29.5C 3.83333,29.5 7.16667,29.5 10.5,29.5C 10.5,30.1667 10.5,30.8333 10.5,31.5C 6.83333,31.5 3.16667,31.5 -0.5,31.5C -0.5,22.1667 -0.5,12.8333 -0.5,3.5 Z"/></g>
<g><path style="opacity:1" fill="#efce37" d="M 10.5,29.5 C 13.5,29.5 16.5,29.5 19.5,29.5C 19.5,30.1667 19.5,30.8333 19.5,31.5C 16.5,31.5 13.5,31.5 10.5,31.5C 10.5,30.8333 10.5,30.1667 10.5,29.5 Z"/></g>
<g><path style="opacity:1" fill="#fac130" d="M 28.5,29.5 C 29.5,29.5 30.5,29.5 31.5,29.5C 31.5,30.1667 31.5,30.8333 31.5,31.5C 29.5,31.5 27.5,31.5 25.5,31.5C 25.8212,29.9519 26.8212,29.2852 28.5,29.5 Z"/></g>
</svg>
