<?xml version="1.0" encoding="UTF-8"?>
<!DOCTYPE svg PUBLIC "-//W3C//DTD SVG 1.1//EN" "http://www.w3.org/Graphics/SVG/1.1/DTD/svg11.dtd">
<svg xmlns="http://www.w3.org/2000/svg" version="1.1" width="32px" height="32px" style="shape-rendering:geometricPrecision; text-rendering:geometricPrecision; image-rendering:optimizeQuality; fill-rule:evenodd; clip-rule:evenodd" xmlns:xlink="http://www.w3.org/1999/xlink">
<g><path style="opacity:1" fill="#917946" d="M 17.5,-0.5 C 22.1667,-0.5 26.8333,-0.5 31.5,-0.5C 31.5,0.5 31.5,1.5 31.5,2.5C 29.8007,2.52709 28.4674,3.19376 27.5,4.5C 27.1436,2.81018 26.1436,1.81018 24.5,1.5C 23.0813,0.548855 21.4147,0.215521 19.5,0.5C 18.5084,0.67158 17.8417,0.338246 17.5,-0.5 Z"/></g>
<g><path style="opacity:1" fill="#957f49" d="M 24.5,1.5 C 26.1436,1.81018 27.1436,2.81018 27.5,4.5C 27.5,5.5 27.5,6.5 27.5,7.5C 26.7784,7.08247 26.2784,6.4158 26,5.5C 25.7679,6.73747 25.2679,7.73747 24.5,8.5C 24.634,6.70848 24.3007,5.04181 23.5,3.5C 23.8333,2.83333 24.1667,2.16667 24.5,1.5 Z"/></g>
<g><path style="opacity:1" fill="#937c47" d="M 14.5,-0.5 C 15.5,-0.5 16.5,-0.5 17.5,-0.5C 17.8417,0.338246 18.5084,0.67158 19.5,0.5C 18.8333,1.16667 18.1667,1.83333 17.5,2.5C 16.8333,2.5 16.5,2.83333 16.5,3.5C 14.5168,3.84316 13.1834,3.17649 12.5,1.5C 13.5,1.16667 14.1667,0.5 14.5,-0.5 Z"/></g>
<g><path style="opacity:1" fill="#af965a" d="M 19.5,0.5 C 21.4147,0.215521 23.0813,0.548855 24.5,1.5C 24.1667,2.16667 23.8333,2.83333 23.5,3.5C 21.7949,4.08806 20.1283,4.4214 18.5,4.5C 17.7025,4.04311 17.3691,3.37644 17.5,2.5C 18.1667,1.83333 18.8333,1.16667 19.5,0.5 Z"/></g>
<g><path style="opacity:1" fill="#83693a" d="M 4.5,1.5 C 5.09065,2.15149 5.75731,2.81815 6.5,3.5C 6.37642,4.10667 6.04309,4.44001 5.5,4.5C 3.44818,3.9473 3.11484,2.9473 4.5,1.5 Z"/></g>
<g><path style="opacity:1" fill="#998049" d="M 12.5,1.5 C 13.1834,3.17649 14.5168,3.84316 16.5,3.5C 15.2801,5.28374 15.2801,6.95041 16.5,8.5C 15.2486,10.561 13.5819,10.8943 11.5,9.5C 12.325,8.61432 13.325,8.28099 14.5,8.5C 14.5,7.16667 14.5,5.83333 14.5,4.5C 13.5,4.5 12.5,4.5 11.5,4.5C 10.3063,1.98237 9.13961,1.98237 8,4.5C 7.51722,3.55198 7.35055,2.55198 7.5,1.5C 9.16667,1.5 10.8333,1.5 12.5,1.5 Z"/></g>
<g><path style="opacity:1" fill="#997f49" d="M -0.5,-0.5 C 1.5,-0.5 3.5,-0.5 5.5,-0.5C 5.67158,0.491622 5.33825,1.15829 4.5,1.5C 3.11484,2.9473 3.44818,3.9473 5.5,4.5C 5.5,4.83333 5.5,5.16667 5.5,5.5C 4.04125,5.43255 2.70792,5.76589 1.5,6.5C 1.15829,5.66175 0.491622,5.32842 -0.5,5.5C -0.5,3.5 -0.5,1.5 -0.5,-0.5 Z"/></g>
<g><path style="opacity:1" fill="#917640" d="M 5.5,-0.5 C 8.5,-0.5 11.5,-0.5 14.5,-0.5C 14.1667,0.5 13.5,1.16667 12.5,1.5C 10.8333,1.5 9.16667,1.5 7.5,1.5C 7.35055,2.55198 7.51722,3.55198 8,4.5C 9.13961,1.98237 10.3063,1.98237 11.5,4.5C 11.3404,6.15298 10.6737,7.48631 9.5,8.5C 9.16667,8.5 8.83333,8.5 8.5,8.5C 8.57298,6.97306 7.90632,5.97306 6.5,5.5C 6.16667,5.5 5.83333,5.5 5.5,5.5C 5.5,5.16667 5.5,4.83333 5.5,4.5C 6.04309,4.44001 6.37642,4.10667 6.5,3.5C 5.75731,2.81815 5.09065,2.15149 4.5,1.5C 5.33825,1.15829 5.67158,0.491622 5.5,-0.5 Z"/></g>
<g><path style="opacity:1" fill="#9e864d" d="M 17.5,2.5 C 17.3691,3.37644 17.7025,4.04311 18.5,4.5C 20.1283,4.4214 21.7949,4.08806 23.5,3.5C 24.3007,5.04181 24.634,6.70848 24.5,8.5C 23.596,7.79105 23.2627,6.79105 23.5,5.5C 21.5,5.5 19.5,5.5 17.5,5.5C 16.596,6.20895 16.2627,7.20895 16.5,8.5C 15.2801,6.95041 15.2801,5.28374 16.5,3.5C 16.5,2.83333 16.8333,2.5 17.5,2.5 Z"/></g>
<g><path style="opacity:1" fill="#9d844c" d="M 31.5,2.5 C 31.5,4.83333 31.5,7.16667 31.5,9.5C 29.8007,9.47291 28.4674,8.80624 27.5,7.5C 27.5,6.5 27.5,5.5 27.5,4.5C 28.4674,3.19376 29.8007,2.52709 31.5,2.5 Z"/></g>
<g><path style="opacity:1" fill="#8b7341" d="M 17.5,5.5 C 19.5,5.5 21.5,5.5 23.5,5.5C 23.2627,6.79105 23.596,7.79105 24.5,8.5C 25.2679,7.73747 25.7679,6.73747 26,5.5C 26.2784,6.4158 26.7784,7.08247 27.5,7.5C 26.3933,9.96892 24.3933,10.9689 21.5,10.5C 20.391,10.4431 19.391,10.1098 18.5,9.5C 17.5655,8.43236 17.2322,7.09903 17.5,5.5 Z"/></g>
<g><path style="opacity:1" fill="#856938" d="M -0.5,5.5 C 0.491622,5.32842 1.15829,5.66175 1.5,6.5C 0.661754,6.84171 0.32842,7.50838 0.5,8.5C 0.166667,8.5 -0.166667,8.5 -0.5,8.5C -0.5,7.5 -0.5,6.5 -0.5,5.5 Z"/></g>
<g><path style="opacity:1" fill="#a68f53" d="M 5.5,5.5 C 5.83333,5.5 6.16667,5.5 6.5,5.5C 6.5,6.83333 5.83333,7.5 4.5,7.5C 3.83333,9.16667 3.16667,10.8333 2.5,12.5C 0.823507,11.8166 0.156841,10.4832 0.5,8.5C 0.32842,7.50838 0.661754,6.84171 1.5,6.5C 2.70792,5.76589 4.04125,5.43255 5.5,5.5 Z"/></g>
<g><path style="opacity:1" fill="#9b8149" d="M 6.5,5.5 C 7.90632,5.97306 8.57298,6.97306 8.5,8.5C 7.99916,10.7067 6.99916,12.0401 5.5,12.5C 5.79472,14.7354 5.46138,16.7354 4.5,18.5C 4.5,14.8333 4.5,11.1667 4.5,7.5C 5.83333,7.5 6.5,6.83333 6.5,5.5 Z"/></g>
<g><path style="opacity:1" fill="#987f48" d="M -0.5,8.5 C -0.166667,8.5 0.166667,8.5 0.5,8.5C 0.156841,10.4832 0.823507,11.8166 2.5,12.5C 3.33249,15.315 2.33249,15.9816 -0.5,14.5C -0.5,12.5 -0.5,10.5 -0.5,8.5 Z"/></g>
<g><path style="opacity:1" fill="#987f49" d="M 27.5,7.5 C 28.4674,8.80624 29.8007,9.47291 31.5,9.5C 31.5,10.5 31.5,11.5 31.5,12.5C 30.1779,12.67 29.0113,12.3366 28,11.5C 27.5065,13.1341 27.3398,14.8008 27.5,16.5C 27.5,16.8333 27.5,17.1667 27.5,17.5C 26.5386,15.7354 26.2053,13.7354 26.5,11.5C 24.8333,11.5 23.1667,11.5 21.5,11.5C 21.5,11.1667 21.5,10.8333 21.5,10.5C 24.3933,10.9689 26.3933,9.96892 27.5,7.5 Z"/></g>
<g><path style="opacity:1" fill="#9f864c" d="M 4.5,7.5 C 4.5,11.1667 4.5,14.8333 4.5,18.5C 4.16667,18.5 3.83333,18.5 3.5,18.5C 2.83333,18.5 2.5,18.1667 2.5,17.5C 1.79105,16.596 0.791047,16.2627 -0.5,16.5C -0.5,15.8333 -0.5,15.1667 -0.5,14.5C 2.33249,15.9816 3.33249,15.315 2.5,12.5C 3.16667,10.8333 3.83333,9.16667 4.5,7.5 Z"/></g>
<g><path style="opacity:1" fill="#907744" d="M 11.5,4.5 C 12.5,4.5 13.5,4.5 14.5,4.5C 14.5,5.83333 14.5,7.16667 14.5,8.5C 13.325,8.28099 12.325,8.61432 11.5,9.5C 13.5819,10.8943 15.2486,10.561 16.5,8.5C 16.2627,7.20895 16.596,6.20895 17.5,5.5C 17.2322,7.09903 17.5655,8.43236 18.5,9.5C 18.7709,11.3797 18.1042,12.713 16.5,13.5C 16.2089,12.3509 15.3756,11.6842 14,11.5C 11.6405,11.324 11.1405,11.9907 12.5,13.5C 11.1667,13.5 10.5,12.8333 10.5,11.5C 9.89022,10.609 9.55688,9.60895 9.5,8.5C 10.6737,7.48631 11.3404,6.15298 11.5,4.5 Z"/></g>
<g><path style="opacity:1" fill="#8a713e" d="M 16.5,13.5 C 15.6457,14.6316 15.6457,15.965 16.5,17.5C 15.791,18.404 14.791,18.7373 13.5,18.5C 13.7845,16.5853 13.4511,14.9187 12.5,13.5C 11.1405,11.9907 11.6405,11.324 14,11.5C 15.3756,11.6842 16.2089,12.3509 16.5,13.5 Z"/></g>
<g><path style="opacity:1" fill="#997f47" d="M 18.5,9.5 C 19.391,10.1098 20.391,10.4431 21.5,10.5C 21.5,10.8333 21.5,11.1667 21.5,11.5C 22.5676,12.4345 23.901,12.7678 25.5,12.5C 25.5,14.5 25.5,16.5 25.5,18.5C 24.8333,18.5 24.5,18.1667 24.5,17.5C 24.5,16.1667 24.5,14.8333 24.5,13.5C 18.7797,12.7365 18.113,14.0698 22.5,17.5C 22.1373,18.1835 21.8039,18.8501 21.5,19.5C 21.5,20.1667 21.5,20.8333 21.5,21.5C 20.7321,20.7375 20.2321,19.7375 20,18.5C 19.3292,17.7476 18.4959,17.4142 17.5,17.5C 17.1667,17.5 16.8333,17.5 16.5,17.5C 15.6457,15.965 15.6457,14.6316 16.5,13.5C 18.1042,12.713 18.7709,11.3797 18.5,9.5 Z"/></g>
<g><path style="opacity:1" fill="#a78e55" d="M 21.5,11.5 C 23.1667,11.5 24.8333,11.5 26.5,11.5C 26.2053,13.7354 26.5386,15.7354 27.5,17.5C 28.2389,17.369 28.9056,17.5357 29.5,18C 28.2068,18.49 26.8734,18.6567 25.5,18.5C 25.5,16.5 25.5,14.5 25.5,12.5C 23.901,12.7678 22.5676,12.4345 21.5,11.5 Z"/></g>
<g><path style="opacity:1" fill="#99814b" d="M 8.5,8.5 C 8.83333,8.5 9.16667,8.5 9.5,8.5C 9.55688,9.60895 9.89022,10.609 10.5,11.5C 9.24365,13.7257 9.24365,16.059 10.5,18.5C 9.66175,18.8417 9.32842,19.5084 9.5,20.5C 8.54885,19.0813 8.21552,17.4147 8.5,15.5C 8.5,14.5 8.5,13.5 8.5,12.5C 7.5,12.5 6.5,12.5 5.5,12.5C 6.99916,12.0401 7.99916,10.7067 8.5,8.5 Z"/></g>
<g><path style="opacity:1" fill="#8b7442" d="M 24.5,17.5 C 23.7777,18.5511 22.7777,19.2178 21.5,19.5C 21.8039,18.8501 22.1373,18.1835 22.5,17.5C 18.113,14.0698 18.7797,12.7365 24.5,13.5C 24.5,14.8333 24.5,16.1667 24.5,17.5 Z"/></g>
<g><path style="opacity:1" fill="#8a703e" d="M 31.5,12.5 C 31.5,13.8333 31.5,15.1667 31.5,16.5C 30.1667,16.5 28.8333,16.5 27.5,16.5C 27.3398,14.8008 27.5065,13.1341 28,11.5C 29.0113,12.3366 30.1779,12.67 31.5,12.5 Z"/></g>
<g><path style="opacity:1" fill="#a68e54" d="M 10.5,11.5 C 10.5,12.8333 11.1667,13.5 12.5,13.5C 12.9227,15.7812 12.256,17.4479 10.5,18.5C 9.24365,16.059 9.24365,13.7257 10.5,11.5 Z"/></g>
<g><path style="opacity:1" fill="#9d854d" d="M 12.5,13.5 C 13.4511,14.9187 13.7845,16.5853 13.5,18.5C 14.791,18.7373 15.791,18.404 16.5,17.5C 16.8333,17.5 17.1667,17.5 17.5,17.5C 17.8333,18.1667 18.1667,18.8333 18.5,19.5C 16.9891,20.5025 15.3224,21.1692 13.5,21.5C 13.1667,21.5 12.8333,21.5 12.5,21.5C 11.791,20.596 10.791,20.2627 9.5,20.5C 9.32842,19.5084 9.66175,18.8417 10.5,18.5C 12.256,17.4479 12.9227,15.7812 12.5,13.5 Z"/></g>
<g><path style="opacity:1" fill="#927743" d="M 5.5,12.5 C 6.5,12.5 7.5,12.5 8.5,12.5C 8.5,13.5 8.5,14.5 8.5,15.5C 7.79335,17.2307 6.79335,18.8974 5.5,20.5C 6.32496,21.3857 7.32496,21.719 8.5,21.5C 9.22967,23.045 10.563,23.8784 12.5,24C 10.6183,24.1981 8.95161,24.6981 7.5,25.5C 6.5,25.5 5.5,25.5 4.5,25.5C 4.70197,23.0504 4.36863,20.717 3.5,18.5C 3.83333,18.5 4.16667,18.5 4.5,18.5C 5.46138,16.7354 5.79472,14.7354 5.5,12.5 Z"/></g>
<g><path style="opacity:1" fill="#a08950" d="M 17.5,17.5 C 18.4959,17.4142 19.3292,17.7476 20,18.5C 20.2321,19.7375 20.7321,20.7375 21.5,21.5C 21.8333,21.5 22.1667,21.5 22.5,21.5C 21.3065,22.2719 20.3065,23.2719 19.5,24.5C 18.8333,25.1667 18.1667,25.8333 17.5,26.5C 15.5992,26.7535 14.9326,26.4202 15.5,25.5C 17.3465,23.9699 18.3465,21.9699 18.5,19.5C 18.1667,18.8333 17.8333,18.1667 17.5,17.5 Z"/></g>
<g><path style="opacity:1" fill="#937946" d="M 27.5,17.5 C 27.5,17.1667 27.5,16.8333 27.5,16.5C 28.8333,16.5 30.1667,16.5 31.5,16.5C 31.5,17.5 31.5,18.5 31.5,19.5C 29.2646,19.7947 27.2646,19.4614 25.5,18.5C 26.8734,18.6567 28.2068,18.49 29.5,18C 28.9056,17.5357 28.2389,17.369 27.5,17.5 Z"/></g>
<g><path style="opacity:1" fill="#937b47" d="M 8.5,15.5 C 8.21552,17.4147 8.54885,19.0813 9.5,20.5C 10.791,20.2627 11.791,20.596 12.5,21.5C 11.1667,21.5 9.83333,21.5 8.5,21.5C 7.32496,21.719 6.32496,21.3857 5.5,20.5C 6.79335,18.8974 7.79335,17.2307 8.5,15.5 Z"/></g>
<g><path style="opacity:1" fill="#856c3d" d="M 24.5,17.5 C 24.5,18.1667 24.8333,18.5 25.5,18.5C 27.2646,19.4614 29.2646,19.7947 31.5,19.5C 31.5,19.8333 31.5,20.1667 31.5,20.5C 30.1667,20.5 29.5,21.1667 29.5,22.5C 27.0504,22.702 24.717,22.3686 22.5,21.5C 22.1667,21.5 21.8333,21.5 21.5,21.5C 21.5,20.8333 21.5,20.1667 21.5,19.5C 22.7777,19.2178 23.7777,18.5511 24.5,17.5 Z"/></g>
<g><path style="opacity:1" fill="#917743" d="M -0.5,16.5 C 0.791047,16.2627 1.79105,16.596 2.5,17.5C -0.0118491,18.2162 -0.0118491,19.2162 2.5,20.5C 3.45189,22.0453 3.78522,23.712 3.5,25.5C 1.49163,24.6993 0.991634,23.366 2,21.5C 1.2917,22.3805 0.458367,23.0472 -0.5,23.5C -0.5,21.1667 -0.5,18.8333 -0.5,16.5 Z"/></g>
<g><path style="opacity:1" fill="#8c7240" d="M 8.5,21.5 C 9.83333,21.5 11.1667,21.5 12.5,21.5C 12.8333,21.5 13.1667,21.5 13.5,21.5C 14.8062,22.4674 15.4729,23.8007 15.5,25.5C 14.9326,26.4202 15.5992,26.7535 17.5,26.5C 17.5,27.5 17.5,28.5 17.5,29.5C 15.8212,29.2852 14.8212,29.9519 14.5,31.5C 13.5,31.5 12.5,31.5 11.5,31.5C 12.0715,29.64 12.0715,27.9733 11.5,26.5C 11.1007,25.4789 9.76739,25.1455 7.5,25.5C 8.95161,24.6981 10.6183,24.1981 12.5,24C 10.563,23.8784 9.22967,23.045 8.5,21.5 Z"/></g>
<g><path style="opacity:1" fill="#967d47" d="M 18.5,19.5 C 18.3465,21.9699 17.3465,23.9699 15.5,25.5C 15.4729,23.8007 14.8062,22.4674 13.5,21.5C 15.3224,21.1692 16.9891,20.5025 18.5,19.5 Z"/></g>
<g><path style="opacity:1" fill="#957e48" d="M 22.5,21.5 C 24.717,22.3686 27.0504,22.702 29.5,22.5C 29.5,22.8333 29.5,23.1667 29.5,23.5C 29.1667,23.5 28.8333,23.5 28.5,23.5C 25.9899,23.0535 23.9899,23.7202 22.5,25.5C 21.391,25.4431 20.391,25.1098 19.5,24.5C 20.3065,23.2719 21.3065,22.2719 22.5,21.5 Z"/></g>
<g><path style="opacity:1" fill="#9a8049" d="M 3.5,25.5 C 4.10978,26.391 4.44312,27.391 4.5,28.5C 3.59603,29.209 3.26269,30.209 3.5,31.5C 2.16667,31.5 0.833333,31.5 -0.5,31.5C -0.5,28.8333 -0.5,26.1667 -0.5,23.5C 0.458367,23.0472 1.2917,22.3805 2,21.5C 0.991634,23.366 1.49163,24.6993 3.5,25.5 Z"/></g>
<g><path style="opacity:1" fill="#957d47" d="M 31.5,20.5 C 31.5,22.5 31.5,24.5 31.5,26.5C 30.8333,26.5 30.1667,26.5 29.5,26.5C 29.5,25.5 29.5,24.5 29.5,23.5C 29.5,23.1667 29.5,22.8333 29.5,22.5C 29.5,21.1667 30.1667,20.5 31.5,20.5 Z"/></g>
<g><path style="opacity:1" fill="#897141" d="M 2.5,17.5 C 2.5,18.1667 2.83333,18.5 3.5,18.5C 4.36863,20.717 4.70197,23.0504 4.5,25.5C 5.5,25.5 6.5,25.5 7.5,25.5C 9.76739,25.1455 11.1007,25.4789 11.5,26.5C 8.8915,26.4003 6.55817,27.0669 4.5,28.5C 4.44312,27.391 4.10978,26.391 3.5,25.5C 3.78522,23.712 3.45189,22.0453 2.5,20.5C -0.0118491,19.2162 -0.0118491,18.2162 2.5,17.5 Z"/></g>
<g><path style="opacity:1" fill="#a18951" d="M 28.5,23.5 C 27.4324,24.4345 26.099,24.7678 24.5,24.5C 24.8432,26.4832 24.1765,27.8166 22.5,28.5C 22.5,27.5 22.5,26.5 22.5,25.5C 23.9899,23.7202 25.9899,23.0535 28.5,23.5 Z"/></g>
<g><path style="opacity:1" fill="#8d723e" d="M 29.5,26.5 C 30.1667,26.5 30.8333,26.5 31.5,26.5C 31.5,26.8333 31.5,27.1667 31.5,27.5C 28.0504,26.7564 26.3838,28.0897 26.5,31.5C 25.5,31.5 24.5,31.5 23.5,31.5C 24.4734,29.5531 25.4734,27.5531 26.5,25.5C 27.4168,26.1272 28.4168,26.4606 29.5,26.5 Z"/></g>
<g><path style="opacity:1" fill="#937944" d="M 19.5,24.5 C 20.391,25.1098 21.391,25.4431 22.5,25.5C 22.5,26.5 22.5,27.5 22.5,28.5C 21.596,29.209 21.2627,30.209 21.5,31.5C 20.1667,31.5 18.8333,31.5 17.5,31.5C 17.5,30.8333 17.5,30.1667 17.5,29.5C 17.5,28.5 17.5,27.5 17.5,26.5C 18.1667,25.8333 18.8333,25.1667 19.5,24.5 Z"/></g>
<g><path style="opacity:1" fill="#82693b" d="M 31.5,27.5 C 31.5,28.8333 31.5,30.1667 31.5,31.5C 29.8333,31.5 28.1667,31.5 26.5,31.5C 26.3838,28.0897 28.0504,26.7564 31.5,27.5 Z"/></g>
<g><path style="opacity:1" fill="#9d854d" d="M 11.5,26.5 C 12.0715,27.9733 12.0715,29.64 11.5,31.5C 8.83333,31.5 6.16667,31.5 3.5,31.5C 3.26269,30.209 3.59603,29.209 4.5,28.5C 6.55817,27.0669 8.8915,26.4003 11.5,26.5 Z"/></g>
<g><path style="opacity:1" fill="#997f49" d="M 28.5,23.5 C 28.8333,23.5 29.1667,23.5 29.5,23.5C 29.5,24.5 29.5,25.5 29.5,26.5C 28.4168,26.4606 27.4168,26.1272 26.5,25.5C 25.4734,27.5531 24.4734,29.5531 23.5,31.5C 22.8333,31.5 22.1667,31.5 21.5,31.5C 21.2627,30.209 21.596,29.209 22.5,28.5C 24.1765,27.8166 24.8432,26.4832 24.5,24.5C 26.099,24.7678 27.4324,24.4345 28.5,23.5 Z"/></g>
<g><path style="opacity:1" fill="#a1874e" d="M 17.5,29.5 C 17.5,30.1667 17.5,30.8333 17.5,31.5C 16.5,31.5 15.5,31.5 14.5,31.5C 14.8212,29.9519 15.8212,29.2852 17.5,29.5 Z"/></g>
</svg>
