<?xml version="1.0" encoding="UTF-8"?>
<!DOCTYPE svg PUBLIC "-//W3C//DTD SVG 1.1//EN" "http://www.w3.org/Graphics/SVG/1.1/DTD/svg11.dtd">
<svg xmlns="http://www.w3.org/2000/svg" version="1.1" width="16px" height="16px" style="shape-rendering:geometricPrecision; text-rendering:geometricPrecision; image-rendering:optimizeQuality; fill-rule:evenodd; clip-rule:evenodd" xmlns:xlink="http://www.w3.org/1999/xlink">
<g><path style="opacity:1" fill="#896d3b" d="M 2.5,-0.5 C 4.16667,-0.5 5.83333,-0.5 7.5,-0.5C 7.5,0.166667 7.16667,0.5 6.5,0.5C 5.20895,0.262695 4.20895,0.596028 3.5,1.5C 2.83333,1.5 2.5,1.16667 2.5,0.5C 2.5,0.166667 2.5,-0.166667 2.5,-0.5 Z"/></g>
<g><path style="opacity:1" fill="#917945" d="M 7.5,-0.5 C 9.83333,-0.5 12.1667,-0.5 14.5,-0.5C 14.5,0.166667 14.1667,0.5 13.5,0.5C 13.1667,0.5 12.8333,0.5 12.5,0.5C 10.901,0.232191 9.56764,0.565525 8.5,1.5C 7.83333,1.5 7.16667,1.5 6.5,1.5C 6.5,1.16667 6.5,0.833333 6.5,0.5C 7.16667,0.5 7.5,0.166667 7.5,-0.5 Z"/></g>
<g><path style="opacity:1" fill="#b59d5f" d="M 12.5,0.5 C 12.1667,1.16667 11.8333,1.83333 11.5,2.5C 10.5,1.16667 9.5,1.16667 8.5,2.5C 8.5,2.16667 8.5,1.83333 8.5,1.5C 9.56764,0.565525 10.901,0.232191 12.5,0.5 Z"/></g>
<g><path style="opacity:1" fill="#99814a" d="M 12.5,0.5 C 12.8333,0.5 13.1667,0.5 13.5,0.5C 13.8417,1.33825 14.5084,1.67158 15.5,1.5C 15.5,3.16667 15.5,4.83333 15.5,6.5C 14.8333,6.16667 14.1667,5.83333 13.5,5.5C 13.5875,2.4017 13.0875,2.06837 12,4.5C 11.5357,3.90558 11.369,3.23891 11.5,2.5C 11.8333,1.83333 12.1667,1.16667 12.5,0.5 Z"/></g>
<g><path style="opacity:1" fill="#8e7643" d="M 14.5,-0.5 C 14.8333,-0.5 15.1667,-0.5 15.5,-0.5C 15.5,0.166667 15.5,0.833333 15.5,1.5C 14.5084,1.67158 13.8417,1.33825 13.5,0.5C 14.1667,0.5 14.5,0.166667 14.5,-0.5 Z"/></g>
<g><path style="opacity:1" fill="#9a7f47" d="M -0.5,-0.5 C 0.5,-0.5 1.5,-0.5 2.5,-0.5C 2.5,-0.166667 2.5,0.166667 2.5,0.5C 1.66175,0.841711 1.32842,1.50838 1.5,2.5C 1.5,2.83333 1.5,3.16667 1.5,3.5C 0.833333,3.83333 0.166667,4.16667 -0.5,4.5C -0.5,2.83333 -0.5,1.16667 -0.5,-0.5 Z"/></g>
<g><path style="opacity:1" fill="#82683a" d="M 2.5,0.5 C 2.5,1.16667 2.83333,1.5 3.5,1.5C 3.5,1.83333 3.5,2.16667 3.5,2.5C 2.83333,2.5 2.16667,2.5 1.5,2.5C 1.32842,1.50838 1.66175,0.841711 2.5,0.5 Z"/></g>
<g><path style="opacity:1" fill="#9a8149" d="M 6.5,0.5 C 6.5,0.833333 6.5,1.16667 6.5,1.5C 6.16667,1.5 5.83333,1.5 5.5,1.5C 4.83333,1.83333 4.16667,2.16667 3.5,2.5C 3.5,2.16667 3.5,1.83333 3.5,1.5C 4.20895,0.596028 5.20895,0.262695 6.5,0.5 Z"/></g>
<g><path style="opacity:1" fill="#99824b" d="M 5.5,1.5 C 5.83333,1.5 6.16667,1.5 6.5,1.5C 7.16667,1.5 7.83333,1.5 8.5,1.5C 8.5,1.83333 8.5,2.16667 8.5,2.5C 8.5,3.16667 8.5,3.83333 8.5,4.5C 8.16667,4.5 7.83333,4.5 7.5,4.5C 7.59121,2.30228 6.92454,1.96895 5.5,3.5C 5.5,2.83333 5.5,2.16667 5.5,1.5 Z"/></g>
<g><path style="opacity:1" fill="#947941" d="M 5.5,1.5 C 5.5,2.16667 5.5,2.83333 5.5,3.5C 5.84171,4.33825 6.50838,4.67158 7.5,4.5C 7.15829,5.33825 6.49162,5.67158 5.5,5.5C 4.59872,4.70951 3.93205,3.70951 3.5,2.5C 4.16667,2.16667 4.83333,1.83333 5.5,1.5 Z"/></g>
<g><path style="opacity:1" fill="#8c703b" d="M 7.5,4.5 C 6.50838,4.67158 5.84171,4.33825 5.5,3.5C 6.92454,1.96895 7.59121,2.30228 7.5,4.5 Z"/></g>
<g><path style="opacity:1" fill="#8a7240" d="M 11.5,2.5 C 11.369,3.23891 11.5357,3.90558 12,4.5C 13.0875,2.06837 13.5875,2.4017 13.5,5.5C 12.5,5.5 11.5,5.5 10.5,5.5C 9.83333,5.16667 9.16667,4.83333 8.5,4.5C 8.5,3.83333 8.5,3.16667 8.5,2.5C 9.5,1.16667 10.5,1.16667 11.5,2.5 Z"/></g>
<g><path style="opacity:1" fill="#9f864e" d="M 1.5,2.5 C 2.16667,2.5 2.83333,2.5 3.5,2.5C 3.93205,3.70951 4.59872,4.70951 5.5,5.5C 5.5,5.83333 5.5,6.16667 5.5,6.5C 5.5,7.16667 5.16667,7.5 4.5,7.5C 4.15829,6.66175 3.49162,6.32842 2.5,6.5C 1.89022,5.60895 1.55688,4.60895 1.5,3.5C 1.5,3.16667 1.5,2.83333 1.5,2.5 Z"/></g>
<g><path style="opacity:1" fill="#a48b50" d="M 1.5,3.5 C 1.55688,4.60895 1.89022,5.60895 2.5,6.5C 2.5,7.5 2.5,8.5 2.5,9.5C 1.83333,9.5 1.5,9.16667 1.5,8.5C 1.5,7.16667 0.833333,6.5 -0.5,6.5C -0.5,5.83333 -0.5,5.16667 -0.5,4.5C 0.166667,4.16667 0.833333,3.83333 1.5,3.5 Z"/></g>
<g><path style="opacity:1" fill="#866e3d" d="M 7.5,4.5 C 7.83333,4.5 8.16667,4.5 8.5,4.5C 8.44312,5.60895 8.10978,6.60895 7.5,7.5C 7.16667,7.5 6.83333,7.5 6.5,7.5C 6.5,6.83333 6.16667,6.5 5.5,6.5C 5.5,6.16667 5.5,5.83333 5.5,5.5C 6.49162,5.67158 7.15829,5.33825 7.5,4.5 Z"/></g>
<g><path style="opacity:1" fill="#987f47" d="M 8.5,4.5 C 9.16667,4.83333 9.83333,5.16667 10.5,5.5C 10.5,5.83333 10.5,6.16667 10.5,6.5C 9.83333,6.5 9.5,6.83333 9.5,7.5C 8.83333,7.5 8.16667,7.5 7.5,7.5C 8.10978,6.60895 8.44312,5.60895 8.5,4.5 Z"/></g>
<g><path style="opacity:1" fill="#8b6e3b" d="M 2.5,6.5 C 3.49162,6.32842 4.15829,6.66175 4.5,7.5C 3.83333,8.16667 3.16667,8.83333 2.5,9.5C 2.5,8.5 2.5,7.5 2.5,6.5 Z"/></g>
<g><path style="opacity:1" fill="#8c7543" d="M 9.5,7.5 C 9.5,6.83333 9.83333,6.5 10.5,6.5C 11.8333,6.5 12.5,7.16667 12.5,8.5C 12.1667,8.5 11.8333,8.5 11.5,8.5C 11.1667,8.5 10.8333,8.5 10.5,8.5C 10.5,7.83333 10.1667,7.5 9.5,7.5 Z"/></g>
<g><path style="opacity:1" fill="#a88f57" d="M 10.5,6.5 C 10.5,6.16667 10.5,5.83333 10.5,5.5C 11.5,5.5 12.5,5.5 13.5,5.5C 13.2852,7.17876 13.9519,8.17876 15.5,8.5C 15.5,8.83333 15.5,9.16667 15.5,9.5C 14.8333,9.5 14.1667,9.5 13.5,9.5C 12.8333,9.5 12.5,9.16667 12.5,8.5C 12.5,7.16667 11.8333,6.5 10.5,6.5 Z"/></g>
<g><path style="opacity:1" fill="#8a713e" d="M 13.5,5.5 C 14.1667,5.83333 14.8333,6.16667 15.5,6.5C 15.5,7.16667 15.5,7.83333 15.5,8.5C 13.9519,8.17876 13.2852,7.17876 13.5,5.5 Z"/></g>
<g><path style="opacity:1" fill="#997f47" d="M -0.5,6.5 C 0.833333,6.5 1.5,7.16667 1.5,8.5C 0.833333,8.5 0.166667,8.5 -0.5,8.5C -0.5,7.83333 -0.5,7.16667 -0.5,6.5 Z"/></g>
<g><path style="opacity:1" fill="#a78f53" d="M 5.5,6.5 C 6.16667,6.5 6.5,6.83333 6.5,7.5C 6.5,8.16667 6.5,8.83333 6.5,9.5C 5.5,9.16667 4.83333,8.5 4.5,7.5C 5.16667,7.5 5.5,7.16667 5.5,6.5 Z"/></g>
<g><path style="opacity:1" fill="#8f7541" d="M 6.5,7.5 C 6.83333,7.5 7.16667,7.5 7.5,7.5C 8.16667,7.5 8.83333,7.5 9.5,7.5C 10.1667,7.5 10.5,7.83333 10.5,8.5C 9.16667,8.83333 7.83333,9.16667 6.5,9.5C 6.5,8.83333 6.5,8.16667 6.5,7.5 Z"/></g>
<g><path style="opacity:1" fill="#967f49" d="M 4.5,7.5 C 4.83333,8.5 5.5,9.16667 6.5,9.5C 6.5,9.83333 6.5,10.1667 6.5,10.5C 5.83333,10.5 5.16667,10.5 4.5,10.5C 3.83333,10.5 3.16667,10.5 2.5,10.5C 2.5,10.1667 2.5,9.83333 2.5,9.5C 3.16667,8.83333 3.83333,8.16667 4.5,7.5 Z"/></g>
<g><path style="opacity:1" fill="#816839" d="M 11.5,8.5 C 11.8333,8.5 12.1667,8.5 12.5,8.5C 12.5,9.16667 12.8333,9.5 13.5,9.5C 13.5,9.83333 13.5,10.1667 13.5,10.5C 12.8333,10.5 12.1667,10.5 11.5,10.5C 10.8333,10.5 10.5,10.1667 10.5,9.5C 11.1667,9.5 11.5,9.16667 11.5,8.5 Z"/></g>
<g><path style="opacity:1" fill="#81683a" d="M 13.5,9.5 C 14.1667,9.5 14.8333,9.5 15.5,9.5C 15.5,9.83333 15.5,10.1667 15.5,10.5C 14.8333,10.8333 14.1667,11.1667 13.5,11.5C 13.5,11.1667 13.5,10.8333 13.5,10.5C 13.5,10.1667 13.5,9.83333 13.5,9.5 Z"/></g>
<g><path style="opacity:1" fill="#8b7141" d="M -0.5,8.5 C 0.166667,8.5 0.833333,8.5 1.5,8.5C 1.5,9.16667 1.83333,9.5 2.5,9.5C 2.5,9.83333 2.5,10.1667 2.5,10.5C 2.5,11.1667 2.5,11.8333 2.5,12.5C 2.16667,12.5 1.83333,12.5 1.5,12.5C 1.59121,10.3023 0.924541,9.96895 -0.5,11.5C -0.5,10.5 -0.5,9.5 -0.5,8.5 Z"/></g>
<g><path style="opacity:1" fill="#987c47" d="M 2.5,10.5 C 3.16667,10.5 3.83333,10.5 4.5,10.5C 4.16667,11.1667 3.83333,11.8333 3.5,12.5C 3.16667,12.5 2.83333,12.5 2.5,12.5C 2.5,11.8333 2.5,11.1667 2.5,10.5 Z"/></g>
<g><path style="opacity:1" fill="#9a824a" d="M 10.5,8.5 C 10.8333,8.5 11.1667,8.5 11.5,8.5C 11.5,9.16667 11.1667,9.5 10.5,9.5C 9.66175,9.84171 9.32842,10.5084 9.5,11.5C 8.83333,11.8333 8.16667,12.1667 7.5,12.5C 7.5,11.8333 7.16667,11.5 6.5,11.5C 6.5,11.1667 6.5,10.8333 6.5,10.5C 6.5,10.1667 6.5,9.83333 6.5,9.5C 7.83333,9.16667 9.16667,8.83333 10.5,8.5 Z"/></g>
<g><path style="opacity:1" fill="#a79157" d="M 10.5,9.5 C 10.5,10.1667 10.8333,10.5 11.5,10.5C 11.1583,11.3382 10.4916,11.6716 9.5,11.5C 9.32842,10.5084 9.66175,9.84171 10.5,9.5 Z"/></g>
<g><path style="opacity:1" fill="#9e8349" d="M 1.5,12.5 C 1.5,12.8333 1.5,13.1667 1.5,13.5C 0.833333,13.8333 0.166667,14.1667 -0.5,14.5C -0.5,13.5 -0.5,12.5 -0.5,11.5C 0.924541,9.96895 1.59121,10.3023 1.5,12.5 Z"/></g>
<g><path style="opacity:1" fill="#907541" d="M 4.5,10.5 C 5.16667,10.5 5.83333,10.5 6.5,10.5C 6.5,10.8333 6.5,11.1667 6.5,11.5C 5.79105,12.404 4.79105,12.7373 3.5,12.5C 3.83333,11.8333 4.16667,11.1667 4.5,10.5 Z"/></g>
<g><path style="opacity:1" fill="#917b47" d="M 11.5,10.5 C 12.1667,10.5 12.8333,10.5 13.5,10.5C 13.5,10.8333 13.5,11.1667 13.5,11.5C 12.8333,11.5 12.5,11.8333 12.5,12.5C 11.5,12.5 10.5,12.5 9.5,12.5C 9.5,12.1667 9.5,11.8333 9.5,11.5C 10.4916,11.6716 11.1583,11.3382 11.5,10.5 Z"/></g>
<g><path style="opacity:1" fill="#9c834c" d="M 15.5,10.5 C 15.5,11.1667 15.5,11.8333 15.5,12.5C 14.5,12.5 13.5,12.5 12.5,12.5C 12.5,11.8333 12.8333,11.5 13.5,11.5C 14.1667,11.1667 14.8333,10.8333 15.5,10.5 Z"/></g>
<g><path style="opacity:1" fill="#887140" d="M 1.5,13.5 C 1.5,13.1667 1.5,12.8333 1.5,12.5C 1.83333,12.5 2.16667,12.5 2.5,12.5C 2.83333,12.5 3.16667,12.5 3.5,12.5C 3.5,12.8333 3.5,13.1667 3.5,13.5C 3.5,14.1667 3.16667,14.5 2.5,14.5C 2.5,13.8333 2.16667,13.5 1.5,13.5 Z"/></g>
<g><path style="opacity:1" fill="#866e3f" d="M 6.5,11.5 C 7.16667,11.5 7.5,11.8333 7.5,12.5C 7.5,12.8333 7.5,13.1667 7.5,13.5C 6.83333,13.5 6.16667,13.5 5.5,13.5C 4.83333,13.5 4.16667,13.5 3.5,13.5C 3.5,13.1667 3.5,12.8333 3.5,12.5C 4.79105,12.7373 5.79105,12.404 6.5,11.5 Z"/></g>
<g><path style="opacity:1" fill="#9f874f" d="M 9.5,11.5 C 9.5,11.8333 9.5,12.1667 9.5,12.5C 9.5,12.8333 9.5,13.1667 9.5,13.5C 8.83333,13.5 8.16667,13.5 7.5,13.5C 7.5,13.1667 7.5,12.8333 7.5,12.5C 8.16667,12.1667 8.83333,11.8333 9.5,11.5 Z"/></g>
<g><path style="opacity:1" fill="#927641" d="M 12.5,12.5 C 13.5,12.5 14.5,12.5 15.5,12.5C 15.5,12.8333 15.5,13.1667 15.5,13.5C 14.1667,13.5 13.5,14.1667 13.5,15.5C 13.1667,15.5 12.8333,15.5 12.5,15.5C 12.5,14.5 12.5,13.5 12.5,12.5 Z"/></g>
<g><path style="opacity:1" fill="#a48b52" d="M 3.5,13.5 C 4.16667,13.5 4.83333,13.5 5.5,13.5C 5.5,14.1667 5.5,14.8333 5.5,15.5C 4.16667,15.5 2.83333,15.5 1.5,15.5C 1.5,14.8333 1.83333,14.5 2.5,14.5C 3.16667,14.5 3.5,14.1667 3.5,13.5 Z"/></g>
<g><path style="opacity:1" fill="#8c713e" d="M 5.5,13.5 C 6.16667,13.5 6.83333,13.5 7.5,13.5C 8.16667,13.5 8.83333,13.5 9.5,13.5C 8.83333,14.1667 8.16667,14.8333 7.5,15.5C 6.83333,15.5 6.16667,15.5 5.5,15.5C 5.5,14.8333 5.5,14.1667 5.5,13.5 Z"/></g>
<g><path style="opacity:1" fill="#977e48" d="M 9.5,12.5 C 10.5,12.5 11.5,12.5 12.5,12.5C 12.5,13.5 12.5,14.5 12.5,15.5C 10.8333,15.5 9.16667,15.5 7.5,15.5C 8.16667,14.8333 8.83333,14.1667 9.5,13.5C 9.5,13.1667 9.5,12.8333 9.5,12.5 Z"/></g>
<g><path style="opacity:1" fill="#937945" d="M 1.5,13.5 C 2.16667,13.5 2.5,13.8333 2.5,14.5C 1.83333,14.5 1.5,14.8333 1.5,15.5C 0.833333,15.5 0.166667,15.5 -0.5,15.5C -0.5,15.1667 -0.5,14.8333 -0.5,14.5C 0.166667,14.1667 0.833333,13.8333 1.5,13.5 Z"/></g>
<g><path style="opacity:1" fill="#81693c" d="M 15.5,13.5 C 15.5,14.1667 15.5,14.8333 15.5,15.5C 14.8333,15.5 14.1667,15.5 13.5,15.5C 13.5,14.1667 14.1667,13.5 15.5,13.5 Z"/></g>
</svg>
