<?xml version="1.0" encoding="UTF-8"?>
<!DOCTYPE svg PUBLIC "-//W3C//DTD SVG 1.1//EN" "http://www.w3.org/Graphics/SVG/1.1/DTD/svg11.dtd">
<svg xmlns="http://www.w3.org/2000/svg" version="1.1" width="32px" height="32px" style="shape-rendering:geometricPrecision; text-rendering:geometricPrecision; image-rendering:optimizeQuality; fill-rule:evenodd; clip-rule:evenodd" xmlns:xlink="http://www.w3.org/1999/xlink">
<g><path style="opacity:1" fill="#2b1e0d" d="M -0.5,-0.5 C 1.16667,-0.5 2.83333,-0.5 4.5,-0.5C 4.40778,2.40003 5.74112,4.06669 8.5,4.5C 5.83333,4.5 3.16667,4.5 0.5,4.5C 0.5,5.83333 0.5,7.16667 0.5,8.5C 0.166667,8.5 -0.166667,8.5 -0.5,8.5C -0.5,5.5 -0.5,2.5 -0.5,-0.5 Z"/></g>
<g><path style="opacity:1" fill="#30200f" d="M 4.5,-0.5 C 6.5,-0.5 8.5,-0.5 10.5,-0.5C 13.4878,1.14021 16.8211,1.97354 20.5,2C 21.756,2.41691 22.4226,3.25025 22.5,4.5C 17.8333,4.5 13.1667,4.5 8.5,4.5C 5.74112,4.06669 4.40778,2.40003 4.5,-0.5 Z"/></g>
<g><path style="opacity:1" fill="#2b1e0d" d="M 10.5,-0.5 C 17.5,-0.5 24.5,-0.5 31.5,-0.5C 31.5,2.5 31.5,5.5 31.5,8.5C 28.7438,8.28384 26.4105,7.28384 24.5,5.5C 24.1583,4.66175 23.4916,4.32842 22.5,4.5C 22.4226,3.25025 21.756,2.41691 20.5,2C 16.8211,1.97354 13.4878,1.14021 10.5,-0.5 Z"/></g>
<g><path style="opacity:1" fill="#523b26" d="M 8.5,4.5 C 13.1667,4.5 17.8333,4.5 22.5,4.5C 23.4916,4.32842 24.1583,4.66175 24.5,5.5C 17.3134,5.17547 10.3134,5.50881 3.5,6.5C 2.83333,6.5 2.5,6.83333 2.5,7.5C 1.83333,7.83333 1.16667,8.16667 0.5,8.5C 0.5,7.16667 0.5,5.83333 0.5,4.5C 3.16667,4.5 5.83333,4.5 8.5,4.5 Z"/></g>
<g><path style="opacity:1" fill="#9b735a" d="M 3.5,6.5 C 9.68996,6.17711 15.69,6.51045 21.5,7.5C 17.1667,7.5 12.8333,7.5 8.5,7.5C 6.3792,7.32526 4.3792,7.65859 2.5,8.5C 2.5,8.16667 2.5,7.83333 2.5,7.5C 2.5,6.83333 2.83333,6.5 3.5,6.5 Z"/></g>
<g><path style="opacity:1" fill="#593d27" d="M 24.5,5.5 C 26.4105,7.28384 28.7438,8.28384 31.5,8.5C 31.5,9.16667 31.5,9.83333 31.5,10.5C 27.7981,10.7742 25.4648,9.10751 24.5,5.5 Z"/></g>
<g><path style="opacity:1" fill="#ba8a73" d="M 8.5,7.5 C 12.8333,7.5 17.1667,7.5 21.5,7.5C 21.5,9.16667 21.5,10.8333 21.5,12.5C 20.1667,12.5 18.8333,12.5 17.5,12.5C 17.3893,11.8826 17.056,11.3826 16.5,11C 14.5273,10.5045 12.5273,10.3379 10.5,10.5C 9.09368,10.0269 8.42702,9.02694 8.5,7.5 Z"/></g>
<g><path style="opacity:1" fill="#7f5d47" d="M 2.5,7.5 C 2.5,7.83333 2.5,8.16667 2.5,8.5C 2.5,10.5 1.5,11.5 -0.5,11.5C -0.5,10.5 -0.5,9.5 -0.5,8.5C -0.166667,8.5 0.166667,8.5 0.5,8.5C 1.16667,8.16667 1.83333,7.83333 2.5,7.5 Z"/></g>
<g><path style="opacity:1" fill="#b2846b" d="M 8.5,7.5 C 8.42702,9.02694 9.09368,10.0269 10.5,10.5C 9.16667,11.1667 7.83333,11.8333 6.5,12.5C 6.16667,12.5 5.83333,12.5 5.5,12.5C 1.5,11.8333 -0.166667,13.5 0.5,17.5C 0.166667,17.5 -0.166667,17.5 -0.5,17.5C -0.5,15.5 -0.5,13.5 -0.5,11.5C 1.5,11.5 2.5,10.5 2.5,8.5C 4.3792,7.65859 6.3792,7.32526 8.5,7.5 Z"/></g>
<g><path style="opacity:1" fill="#a6765b" d="M 21.5,7.5 C 22.5,7.5 23.5,7.5 24.5,7.5C 24.33,8.82207 24.6634,9.98873 25.5,11C 27.4727,11.4955 29.4727,11.6621 31.5,11.5C 31.5,13.5 31.5,15.5 31.5,17.5C 29.4352,17.5172 27.4352,17.8505 25.5,18.5C 26.9418,17.1805 27.6085,15.5138 27.5,13.5C 25.8333,13.5 24.1667,13.5 22.5,13.5C 21.8333,13.5 21.5,13.1667 21.5,12.5C 21.5,10.8333 21.5,9.16667 21.5,7.5 Z"/></g>
<g><path style="opacity:1" fill="#815a41" d="M 3.5,6.5 C 10.3134,5.50881 17.3134,5.17547 24.5,5.5C 25.4648,9.10751 27.7981,10.7742 31.5,10.5C 31.5,10.8333 31.5,11.1667 31.5,11.5C 29.4727,11.6621 27.4727,11.4955 25.5,11C 24.6634,9.98873 24.33,8.82207 24.5,7.5C 23.5,7.5 22.5,7.5 21.5,7.5C 15.69,6.51045 9.68996,6.17711 3.5,6.5 Z"/></g>
<g><path style="opacity:1" fill="#ac7d68" d="M 10.5,10.5 C 12.5273,10.3379 14.5273,10.5045 16.5,11C 17.056,11.3826 17.3893,11.8826 17.5,12.5C 16.6993,14.0418 16.366,15.7085 16.5,17.5C 14.8333,17.5 13.1667,17.5 11.5,17.5C 11.5,15.8333 11.5,14.1667 11.5,12.5C 9.83333,12.5 8.16667,12.5 6.5,12.5C 7.83333,11.8333 9.16667,11.1667 10.5,10.5 Z"/></g>
<g><path style="opacity:1" fill="#a17878" d="M 17.5,12.5 C 18.8333,12.5 20.1667,12.5 21.5,12.5C 21.5,13.1667 21.8333,13.5 22.5,13.5C 22.5,13.8333 22.5,14.1667 22.5,14.5C 22.1667,14.5 21.8333,14.5 21.5,14.5C 20.3478,13.375 19.3478,13.375 18.5,14.5C 17.596,15.209 17.2627,16.209 17.5,17.5C 17.1667,17.5 16.8333,17.5 16.5,17.5C 16.366,15.7085 16.6993,14.0418 17.5,12.5 Z"/></g>
<g><path style="opacity:1" fill="#c0998a" d="M 5.5,12.5 C 5.5,12.8333 5.5,13.1667 5.5,13.5C 0.951443,13.9323 0.451443,15.5989 4,18.5C 4.38258,17.944 4.88258,17.6107 5.5,17.5C 5.83333,17.5 6.16667,17.5 6.5,17.5C 6.5,17.8333 6.5,18.1667 6.5,18.5C 6.5,18.8333 6.5,19.1667 6.5,19.5C 4.14166,19.7475 2.14166,19.0808 0.5,17.5C -0.166667,13.5 1.5,11.8333 5.5,12.5 Z"/></g>
<g><path style="opacity:1" fill="#dbc7c2" d="M 5.5,13.5 C 5.5,14.8333 5.5,16.1667 5.5,17.5C 4.88258,17.6107 4.38258,17.944 4,18.5C 0.451443,15.5989 0.951443,13.9323 5.5,13.5 Z"/></g>
<g><path style="opacity:1" fill="#7b5d85" d="M 21.5,14.5 C 21.5,15.5 21.5,16.5 21.5,17.5C 20.5,17.5 19.5,17.5 18.5,17.5C 18.5,16.5 18.5,15.5 18.5,14.5C 19.3478,13.375 20.3478,13.375 21.5,14.5 Z"/></g>
<g><path style="opacity:1" fill="#e7dad3" d="M 23.5,14.5 C 25.9845,15.2601 25.9845,16.2601 23.5,17.5C 23.5,16.5 23.5,15.5 23.5,14.5 Z"/></g>
<g><path style="opacity:1" fill="#8c6676" d="M 18.5,14.5 C 18.5,15.5 18.5,16.5 18.5,17.5C 19.5,17.5 20.5,17.5 21.5,17.5C 20.791,18.404 19.791,18.7373 18.5,18.5C 17.8333,18.5 17.5,18.1667 17.5,17.5C 17.2627,16.209 17.596,15.209 18.5,14.5 Z"/></g>
<g><path style="opacity:1" fill="#c0b0bf" d="M 21.5,14.5 C 21.8333,14.5 22.1667,14.5 22.5,14.5C 22.8333,14.5 23.1667,14.5 23.5,14.5C 23.5,15.5 23.5,16.5 23.5,17.5C 22.8333,17.5 22.1667,17.5 21.5,17.5C 21.5,16.5 21.5,15.5 21.5,14.5 Z"/></g>
<g><path style="opacity:1" fill="#c4a593" d="M 22.5,14.5 C 22.5,14.1667 22.5,13.8333 22.5,13.5C 24.1667,13.5 25.8333,13.5 27.5,13.5C 27.6085,15.5138 26.9418,17.1805 25.5,18.5C 24.5084,18.6716 23.8417,18.3382 23.5,17.5C 25.9845,16.2601 25.9845,15.2601 23.5,14.5C 23.1667,14.5 22.8333,14.5 22.5,14.5 Z"/></g>
<g><path style="opacity:1" fill="#8f6d83" d="M 5.5,13.5 C 7.16667,13.5 8.83333,13.5 10.5,13.5C 11.2436,16.9496 9.91032,18.6162 6.5,18.5C 6.5,18.1667 6.5,17.8333 6.5,17.5C 6.16667,17.5 5.83333,17.5 5.5,17.5C 5.5,16.1667 5.5,14.8333 5.5,13.5 Z"/></g>
<g><path style="opacity:1" fill="#735788" d="M 6.5,17.5 C 6.5,16.5 6.5,15.5 6.5,14.5C 10.31,15.2458 10.31,16.2458 6.5,17.5 Z"/></g>
<g><path style="opacity:1" fill="#976967" d="M 5.5,13.5 C 5.5,13.1667 5.5,12.8333 5.5,12.5C 5.83333,12.5 6.16667,12.5 6.5,12.5C 8.16667,12.5 9.83333,12.5 11.5,12.5C 11.5,14.1667 11.5,15.8333 11.5,17.5C 11.1667,18.5 10.5,19.1667 9.5,19.5C 8.5,19.5 7.5,19.5 6.5,19.5C 6.5,19.1667 6.5,18.8333 6.5,18.5C 9.91032,18.6162 11.2436,16.9496 10.5,13.5C 8.83333,13.5 7.16667,13.5 5.5,13.5 Z"/></g>
<g><path style="opacity:1" fill="#ae8578" d="M 21.5,17.5 C 22.1667,17.5 22.8333,17.5 23.5,17.5C 23.8417,18.3382 24.5084,18.6716 25.5,18.5C 23.3926,19.4682 21.0593,19.8016 18.5,19.5C 18.5,19.1667 18.5,18.8333 18.5,18.5C 19.791,18.7373 20.791,18.404 21.5,17.5 Z"/></g>
<g><path style="opacity:1" fill="#9c664a" d="M -0.5,17.5 C -0.166667,17.5 0.166667,17.5 0.5,17.5C 1.11243,20.6973 3.11243,22.0306 6.5,21.5C 6.16667,22.1667 5.83333,22.8333 5.5,23.5C 3.3792,23.6747 1.3792,23.3414 -0.5,22.5C -0.5,20.8333 -0.5,19.1667 -0.5,17.5 Z"/></g>
<g><path style="opacity:1" fill="#ac765f" d="M 0.5,17.5 C 2.14166,19.0808 4.14166,19.7475 6.5,19.5C 7.5,19.5 8.5,19.5 9.5,19.5C 9.17876,21.0481 8.17876,21.7148 6.5,21.5C 3.11243,22.0306 1.11243,20.6973 0.5,17.5 Z"/></g>
<g><path style="opacity:1" fill="#845242" d="M 11.5,17.5 C 13.1667,17.5 14.8333,17.5 16.5,17.5C 16.8333,17.5 17.1667,17.5 17.5,17.5C 17.5,18.1667 17.8333,18.5 18.5,18.5C 18.5,18.8333 18.5,19.1667 18.5,19.5C 18.427,21.0269 19.0937,22.0269 20.5,22.5C 20.5,22.8333 20.5,23.1667 20.5,23.5C 19.5,23.5 18.5,23.5 17.5,23.5C 17.5,22.1667 17.5,20.8333 17.5,19.5C 15.5,19.5 13.5,19.5 11.5,19.5C 11.5,20.8333 11.5,22.1667 11.5,23.5C 9.83333,23.5 8.16667,23.5 6.5,23.5C 6.16667,23.5 5.83333,23.5 5.5,23.5C 5.83333,22.8333 6.16667,22.1667 6.5,21.5C 8.17876,21.7148 9.17876,21.0481 9.5,19.5C 10.5,19.1667 11.1667,18.5 11.5,17.5 Z"/></g>
<g><path style="opacity:1" fill="#764435" d="M 20.5,23.5 C 21.3382,23.8417 21.6716,24.5084 21.5,25.5C 16.8338,26.6514 12.1671,26.6514 7.5,25.5C 7.13727,24.8165 6.80393,24.1499 6.5,23.5C 8.16667,23.5 9.83333,23.5 11.5,23.5C 11.5,22.1667 11.5,20.8333 11.5,19.5C 13.5,19.5 15.5,19.5 17.5,19.5C 17.5,20.8333 17.5,22.1667 17.5,23.5C 18.5,23.5 19.5,23.5 20.5,23.5 Z"/></g>
<g><path style="opacity:1" fill="#905f41" d="M 31.5,17.5 C 31.5,18.1667 31.5,18.8333 31.5,19.5C 30.1667,19.5 28.8333,19.5 27.5,19.5C 27.7845,21.4147 27.4511,23.0813 26.5,24.5C 25.5416,24.9528 24.7083,25.6195 24,26.5C 23.9428,24.0898 22.7761,22.7565 20.5,22.5C 19.0937,22.0269 18.427,21.0269 18.5,19.5C 21.0593,19.8016 23.3926,19.4682 25.5,18.5C 27.4352,17.8505 29.4352,17.5172 31.5,17.5 Z"/></g>
<g><path style="opacity:1" fill="#7e5136" d="M 31.5,19.5 C 31.5,23.5 31.5,27.5 31.5,31.5C 29.5,31.5 27.5,31.5 25.5,31.5C 25.448,29.0971 25.7814,26.7638 26.5,24.5C 27.4511,23.0813 27.7845,21.4147 27.5,19.5C 28.8333,19.5 30.1667,19.5 31.5,19.5 Z"/></g>
<g><path style="opacity:1" fill="#82543a" d="M 20.5,23.5 C 20.5,23.1667 20.5,22.8333 20.5,22.5C 22.7761,22.7565 23.9428,24.0898 24,26.5C 24.7083,25.6195 25.5416,24.9528 26.5,24.5C 25.7814,26.7638 25.448,29.0971 25.5,31.5C 22.8333,31.5 20.1667,31.5 17.5,31.5C 17.5,30.1667 17.5,28.8333 17.5,27.5C 19.3797,27.7709 20.713,27.1042 21.5,25.5C 21.6716,24.5084 21.3382,23.8417 20.5,23.5 Z"/></g>
<g><path style="opacity:1" fill="#6e442b" d="M -0.5,27.5 C 1.5,27.5 3.5,27.5 5.5,27.5C 5.5,28.8333 5.5,30.1667 5.5,31.5C 3.5,31.5 1.5,31.5 -0.5,31.5C -0.5,30.1667 -0.5,28.8333 -0.5,27.5 Z"/></g>
<g><path style="opacity:1" fill="#7f5037" d="M -0.5,22.5 C 1.3792,23.3414 3.3792,23.6747 5.5,23.5C 5.83333,23.5 6.16667,23.5 6.5,23.5C 6.80393,24.1499 7.13727,24.8165 7.5,25.5C 12.1671,26.6514 16.8338,26.6514 21.5,25.5C 20.713,27.1042 19.3797,27.7709 17.5,27.5C 17.5,28.8333 17.5,30.1667 17.5,31.5C 13.5,31.5 9.5,31.5 5.5,31.5C 5.5,30.1667 5.5,28.8333 5.5,27.5C 3.5,27.5 1.5,27.5 -0.5,27.5C -0.5,25.8333 -0.5,24.1667 -0.5,22.5 Z"/></g>
</svg>
