<?xml version="1.0" encoding="UTF-8"?>
<!DOCTYPE svg PUBLIC "-//W3C//DTD SVG 1.1//EN" "http://www.w3.org/Graphics/SVG/1.1/DTD/svg11.dtd">
<svg xmlns="http://www.w3.org/2000/svg" version="1.1" width="8px" height="8px" style="shape-rendering:geometricPrecision; text-rendering:geometricPrecision; image-rendering:optimizeQuality; fill-rule:evenodd; clip-rule:evenodd" xmlns:xlink="http://www.w3.org/1999/xlink">
<g><path style="opacity:1" fill="#2f200e" d="M -0.5,-0.5 C 0.833333,-0.5 2.16667,-0.5 3.5,-0.5C 4.16667,0.166667 4.83333,0.833333 5.5,1.5C 3.58533,1.21552 1.91866,1.54885 0.5,2.5C 0.166667,2.5 -0.166667,2.5 -0.5,2.5C -0.5,1.5 -0.5,0.5 -0.5,-0.5 Z"/></g>
<g><path style="opacity:1" fill="#2a1d0c" d="M 3.5,-0.5 C 4.83333,-0.5 6.16667,-0.5 7.5,-0.5C 7.5,0.5 7.5,1.5 7.5,2.5C 6.83333,2.16667 6.16667,1.83333 5.5,1.5C 4.83333,0.833333 4.16667,0.166667 3.5,-0.5 Z"/></g>
<g><path style="opacity:1" fill="#b6846a" d="M 0.5,2.5 C 1.91866,1.54885 3.58533,1.21552 5.5,1.5C 6.16667,1.83333 6.83333,2.16667 7.5,2.5C 7.5,2.83333 7.5,3.16667 7.5,3.5C 6.5,3.5 5.5,3.5 4.5,3.5C 3.43236,2.56552 2.09903,2.23219 0.5,2.5 Z"/></g>
<g><path style="opacity:1" fill="#b78b77" d="M -0.5,2.5 C -0.166667,2.5 0.166667,2.5 0.5,2.5C 2.09903,2.23219 3.43236,2.56552 4.5,3.5C 2.82124,3.28519 1.82124,3.95186 1.5,5.5C 0.833333,5.16667 0.166667,4.83333 -0.5,4.5C -0.5,3.83333 -0.5,3.16667 -0.5,2.5 Z"/></g>
<g><path style="opacity:1" fill="#a87b7e" d="M 4.5,3.5 C 5.5,3.5 6.5,3.5 7.5,3.5C 7.5,3.83333 7.5,4.16667 7.5,4.5C 6.5,4.5 5.5,4.5 4.5,4.5C 3.39105,4.55688 2.39105,4.89022 1.5,5.5C 1.82124,3.95186 2.82124,3.28519 4.5,3.5 Z"/></g>
<g><path style="opacity:1" fill="#734133" d="M 4.5,4.5 C 5.50633,5.39567 5.50633,6.06233 4.5,6.5C 3.20895,6.73731 2.20895,6.40397 1.5,5.5C 2.39105,4.89022 3.39105,4.55688 4.5,4.5 Z"/></g>
<g><path style="opacity:1" fill="#815237" d="M -0.5,4.5 C 0.166667,4.83333 0.833333,5.16667 1.5,5.5C 2.20895,6.40397 3.20895,6.73731 4.5,6.5C 4.5,6.83333 4.5,7.16667 4.5,7.5C 2.83333,7.5 1.16667,7.5 -0.5,7.5C -0.5,6.5 -0.5,5.5 -0.5,4.5 Z"/></g>
<g><path style="opacity:1" fill="#8b5b3e" d="M 4.5,4.5 C 5.5,4.5 6.5,4.5 7.5,4.5C 7.5,5.5 7.5,6.5 7.5,7.5C 6.5,7.5 5.5,7.5 4.5,7.5C 4.5,7.16667 4.5,6.83333 4.5,6.5C 5.50633,6.06233 5.50633,5.39567 4.5,4.5 Z"/></g>
</svg>
