<?xml version="1.0" encoding="UTF-8"?>
<!DOCTYPE svg PUBLIC "-//W3C//DTD SVG 1.1//EN" "http://www.w3.org/Graphics/SVG/1.1/DTD/svg11.dtd">
<svg xmlns="http://www.w3.org/2000/svg" version="1.1" width="31px" height="32px" style="shape-rendering:geometricPrecision; text-rendering:geometricPrecision; image-rendering:optimizeQuality; fill-rule:evenodd; clip-rule:evenodd" xmlns:xlink="http://www.w3.org/1999/xlink">
<g><path style="opacity:0.699" fill="#2e42f3" d="M -0.5,-0.5 C 7.5,-0.5 15.5,-0.5 23.5,-0.5C 25.2789,1.34351 27.6122,2.01017 30.5,1.5C 30.5,5.83333 30.5,10.1667 30.5,14.5C 28.9519,14.1788 28.2852,13.1788 28.5,11.5C 26.396,11.2011 24.396,11.5344 22.5,12.5C 24.7462,14.7631 27.4129,16.0964 30.5,16.5C 30.5,18.5 30.5,20.5 30.5,22.5C 25.5618,21.0007 20.5618,20.1674 15.5,20C 18.466,18.6394 21.466,18.1394 24.5,18.5C 19.8804,17.5067 15.2137,17.1734 10.5,17.5C 11.0906,16.8485 11.7573,16.1818 12.5,15.5C 9.17916,14.6697 5.84583,14.003 2.5,13.5C 1.79105,12.596 0.791047,12.2627 -0.5,12.5C -0.5,11.8333 -0.5,11.1667 -0.5,10.5C 0.495904,10.4142 1.32924,10.7476 2,11.5C 2.49001,10.2068 2.65668,8.87344 2.5,7.5C 5.78906,5.43283 9.45573,4.0995 13.5,3.5C 9.00726,2.98899 4.34059,2.32232 -0.5,1.5C -0.5,0.833333 -0.5,0.166667 -0.5,-0.5 Z"/></g>
<g><path style="opacity:0.725" fill="#3958f3" d="M 23.5,-0.5 C 25.8333,-0.5 28.1667,-0.5 30.5,-0.5C 30.5,0.166667 30.5,0.833333 30.5,1.5C 27.6122,2.01017 25.2789,1.34351 23.5,-0.5 Z"/></g>
<g><path style="opacity:0.678" fill="#2c3df3" d="M -0.5,1.5 C 4.34059,2.32232 9.00726,2.98899 13.5,3.5C 9.45573,4.0995 5.78906,5.43283 2.5,7.5C 2.65668,8.87344 2.49001,10.2068 2,11.5C 1.32924,10.7476 0.495904,10.4142 -0.5,10.5C -0.5,7.5 -0.5,4.5 -0.5,1.5 Z"/></g>
<g><path style="opacity:0.752" fill="#354ef3" d="M 30.5,14.5 C 30.5,15.1667 30.5,15.8333 30.5,16.5C 27.4129,16.0964 24.7462,14.7631 22.5,12.5C 24.396,11.5344 26.396,11.2011 28.5,11.5C 28.2852,13.1788 28.9519,14.1788 30.5,14.5 Z"/></g>
<g><path style="opacity:0.8" fill="#3a5af4" d="M -0.5,12.5 C 0.791047,12.2627 1.79105,12.596 2.5,13.5C 2.5,14.5 2.5,15.5 2.5,16.5C 1.5,16.5 0.5,16.5 -0.5,16.5C -0.5,15.1667 -0.5,13.8333 -0.5,12.5 Z"/></g>
<g><path style="opacity:0.731" fill="#334df3" d="M 2.5,13.5 C 5.84583,14.003 9.17916,14.6697 12.5,15.5C 11.7573,16.1818 11.0906,16.8485 10.5,17.5C 6.83333,17.5 3.16667,17.5 -0.5,17.5C -0.5,17.1667 -0.5,16.8333 -0.5,16.5C 0.5,16.5 1.5,16.5 2.5,16.5C 2.5,15.5 2.5,14.5 2.5,13.5 Z"/></g>
<g><path style="opacity:0.673" fill="#2b3cf3" d="M -0.5,17.5 C 3.16667,17.5 6.83333,17.5 10.5,17.5C 15.2137,17.1734 19.8804,17.5067 24.5,18.5C 21.466,18.1394 18.466,18.6394 15.5,20C 20.5618,20.1674 25.5618,21.0007 30.5,22.5C 30.5,24.5 30.5,26.5 30.5,28.5C 28.9256,28.0629 27.7589,27.0629 27,25.5C 26.3292,26.2524 25.4959,26.5858 24.5,26.5C 23.8333,26.5 23.1667,26.5 22.5,26.5C 22.3893,25.8826 22.056,25.3826 21.5,25C 17.8574,24.8804 14.3574,24.7137 11,24.5C 6.47574,25.5693 6.64241,26.736 11.5,28C 9.94186,28.21 8.60853,28.71 7.5,29.5C 4.83333,29.5 2.16667,29.5 -0.5,29.5C -0.5,25.5 -0.5,21.5 -0.5,17.5 Z"/></g>
<g><path style="opacity:0.698" fill="#2e43f3" d="M 22.5,26.5 C 20.3352,26.1159 18.6685,26.7826 17.5,28.5C 19.7427,29.4742 22.076,29.8076 24.5,29.5C 24.5,28.5 24.5,27.5 24.5,26.5C 25.4959,26.5858 26.3292,26.2524 27,25.5C 27.7589,27.0629 28.9256,28.0629 30.5,28.5C 30.5,29.5 30.5,30.5 30.5,31.5C 24.1667,31.5 17.8333,31.5 11.5,31.5C 10.8166,29.8235 9.48324,29.1568 7.5,29.5C 8.60853,28.71 9.94186,28.21 11.5,28C 6.64241,26.736 6.47574,25.5693 11,24.5C 14.3574,24.7137 17.8574,24.8804 21.5,25C 22.056,25.3826 22.3893,25.8826 22.5,26.5 Z"/></g>
<g><path style="opacity:0.775" fill="#3856f4" d="M 22.5,26.5 C 23.1667,26.5 23.8333,26.5 24.5,26.5C 24.5,27.5 24.5,28.5 24.5,29.5C 22.076,29.8076 19.7427,29.4742 17.5,28.5C 18.6685,26.7826 20.3352,26.1159 22.5,26.5 Z"/></g>
<g><path style="opacity:0.718" fill="#3149f2" d="M -0.5,29.5 C 2.16667,29.5 4.83333,29.5 7.5,29.5C 7.5,30.1667 7.5,30.8333 7.5,31.5C 4.83333,31.5 2.16667,31.5 -0.5,31.5C -0.5,30.8333 -0.5,30.1667 -0.5,29.5 Z"/></g>
<g><path style="opacity:0.818" fill="#3c5df4" d="M 7.5,29.5 C 9.48324,29.1568 10.8166,29.8235 11.5,31.5C 10.1667,31.5 8.83333,31.5 7.5,31.5C 7.5,30.8333 7.5,30.1667 7.5,29.5 Z"/></g>
</svg>
